<?xml version="1.0" encoding="utf-8"?>
<!-- Generator: Adobe Illustrator 15.1.0, SVG Export Plug-In  -->
<!DOCTYPE svg [
	<!ENTITY ns_flows "http://ns.adobe.com/Flows/1.0/">
]>
<svg version="1.2" baseProfile="tiny"
	 xmlns="http://www.w3.org/2000/svg" xmlns:xlink="http://www.w3.org/1999/xlink" xmlns:a="http://ns.adobe.com/AdobeSVGViewerExtensions/3.0/"
	 x="0px" y="0px" width="360px" height="360px" viewBox="-67.75 -148.05 360 360" xml:space="preserve">
<defs>
</defs>
<path fill="#FFFFFF" d="M19.73,16.47c2.82-4.92,6.9-7.32,10.31-7.32c4.62,0,8.28,3.66,8.28,9.29c0,2.46-0.78,5.34-2.52,8.4
	c-4.92,8.58-12.47,11.99-19.13,11.99c-1.26,0-2.4-0.12-3.54-0.3l-1.74,3.06c-3.72,6.36-1.14,10.61,3.12,10.61
	c6.18,0,11.69-4.14,16.19-9.35l0.42-0.48c0.9,0.24,1.98,1.2,2.34,2.16c-5.16,6-11.15,11.51-20.45,11.51C4.2,56.05,1.62,47.65,6,40.1
	l1.86-3.24C2.82,34.22,0,29.42,0,24.45c0-4.2,1.98-8.46,6.42-11.63l2.04,3.66c-2.7,2.1-4.02,4.98-4.02,7.86
	c0,3.48,1.92,6.96,5.58,8.88L19.73,16.47z M16.67,34.7c9.71,0,16.79-10.49,16.79-16.31c0-2.28-1.08-3.84-3.42-3.84
	c-1.74,0-3.78,1.38-5.64,4.56l-9,15.59H16.67z"/>
<path fill="#FFFFFF" d="M60.57,42.38c0.84,0.36,1.92,1.32,2.34,2.16c-5.16,6-11.09,11.51-16.25,11.51c-3.18,0-5.1-1.68-5.4-4.08
	c-3,2.46-6.12,4.08-8.64,4.08c-5.04,0-6.9-4.26-4.26-8.88l8.75-15.11c2.64-4.56,7.32-7.2,10.67-7.2c4.08,0,6.78,3.66,6.54,6.3h3.54
	L47.79,48.79c-1.44,2.46-0.66,3.42,0.72,3.42c2.76,0,7.14-4.14,11.63-9.35L60.57,42.38z M33.76,48.79
	c-1.44,2.46-0.66,3.42,0.72,3.42c2.58,0,6.3-2.82,10.07-8.75l4.86-8.52c3.06-5.64-3.6-7.14-6.96-1.32L33.76,48.79z"/>
<path fill="#FFFFFF" d="M74.42,35.72c0.72-1.26,0.42-2.52-0.36-3.54l-0.84-1.02c-4.98,6.78-7.32,9.9-10.31,13.37
	c-0.9-0.6-1.8-1.38-2.34-2.16c4.08-4.8,7.8-10.07,10.55-13.97l-0.54-0.72c-2.22-2.88-1.92-6.42,1.62-9.59l3.24,3.54
	c-1.26,1.2-1.26,2.46-0.36,3.6l3.48,4.2c2.04,2.46,3.06,4.68,0.9,8.46l-6.24,10.91c-1.44,2.46-0.66,3.42,0.72,3.42
	c2.76,0,7.14-4.14,11.63-9.35l0.42-0.48c0.84,0.36,1.92,1.32,2.34,2.16c-5.16,6-11.09,11.51-16.25,11.51c-5.04,0-6.9-4.26-4.26-8.88
	L74.42,35.72z"/>
<path fill="#FFFFFF" d="M91.87,22.47h5.64l5.88-10.19h6.24l-5.88,10.19h5.16l-1.8,3H102L88.63,48.79c-1.44,2.46-0.66,3.42,0.72,3.42
	c2.76,0,7.14-4.14,11.63-9.35l0.42-0.48c0.84,0.36,1.92,1.32,2.34,2.16c-5.16,6-11.09,11.51-16.25,11.51c-5.04,0-6.9-4.26-4.26-8.88
	l12.53-21.71h-5.7L91.87,22.47z"/>
<path fill="#FFFFFF" d="M116.76,50.59c-8.39,10.61-23.45,5.64-15.59-7.86l2.7-4.62l3.06-5.34c3.6-6.24,7.32-8.16,12.11-8.16
	c5.88,0,9.35,6.18,5.58,12.71l-5.88,10.13c3.12-0.06,6.6-1.56,9.42-4.62l0.42-0.48c0.84,0.36,1.92,1.32,2.34,2.16
	c-3.18,3.78-9.05,6.06-12.77,6.06H116.76z M114.96,42.8h0.3l4.56-7.8c3.78-6.48-2.22-9.41-6.6-1.98l-3,5.1l-4.74,8.21
	c-3.72,6.48,3.42,7.44,6.36,2.4l0.06-0.12c-0.36-0.6-0.6-1.32-0.6-2.1C111.3,44.48,112.92,42.8,114.96,42.8z"/>
<path fill="#FFFFFF" d="M142.61,55.97c-3.71,0-6.62-1.19-8.75-3.56c-0.84-0.84-1.51-1.85-2-3.04c-0.49-1.19-0.87-2.5-1.11-3.93
	c-0.15-0.89-0.22-1.66-0.22-2.3c0-0.64,0-1.09,0-1.33V13.27c0-2.27,0.36-4.25,1.07-5.93c0.72-1.68,1.64-3.06,2.78-4.15
	c1.14-1.09,2.42-1.89,3.85-2.41S141.11,0,142.54,0c0.89,0,2.11,0.17,3.67,0.52c1.56,0.35,3.05,1.16,4.48,2.45
	c0.99,0.84,1.94,2.08,2.85,3.71c0.91,1.63,1.37,3.83,1.37,6.6c0,0.74-0.26,1.37-0.78,1.89c-0.52,0.52-1.15,0.78-1.89,0.78
	c-0.74,0-1.37-0.26-1.89-0.78c-0.52-0.52-0.78-1.15-0.78-1.89c0-1.83-0.29-3.27-0.85-4.34c-0.57-1.06-1.25-1.85-2.04-2.37
	c-0.79-0.52-1.57-0.85-2.33-1c-0.77-0.15-1.37-0.22-1.82-0.22c-0.84,0-1.64,0.15-2.41,0.44c-0.77,0.3-1.42,0.72-1.96,1.26
	c-1.53,1.38-2.3,3.46-2.3,6.23v28.69v0.22c0,0.05,0,0.31,0,0.78c0,0.47,0.05,1.04,0.15,1.71c0.1,0.67,0.28,1.38,0.56,2.15
	c0.27,0.77,0.68,1.45,1.22,2.04c1.09,1.19,2.69,1.78,4.82,1.78c2.22,0,3.88-0.62,4.97-1.85c0.54-0.59,0.95-1.23,1.22-1.93
	c0.27-0.69,0.47-1.36,0.59-2c0.12-0.64,0.19-1.41,0.19-2.3c-0.05-0.74,0.17-1.38,0.67-1.93c0.49-0.54,1.11-0.84,1.85-0.89
	c0.69-0.05,1.32,0.17,1.89,0.67c0.57,0.5,0.88,1.09,0.93,1.78c0,0.1,0,0.47,0,1.11c0,0.64-0.1,1.46-0.3,2.45
	c-0.45,2.77-1.48,4.99-3.11,6.67C149.29,54.78,146.32,55.97,142.61,55.97z"/>
<path fill="#FFFFFF" d="M191.76,53.23c0,0.69-0.25,1.3-0.74,1.82c-0.5,0.52-1.11,0.78-1.85,0.78c-0.69,0-1.3-0.26-1.82-0.78
	c-0.52-0.52-0.78-1.12-0.78-1.82V14.16l-8.45,16.53c-0.25,0.69-0.67,1.19-1.26,1.48c-0.5,0.2-0.89,0.3-1.19,0.3
	c-0.25,0-0.46-0.02-0.63-0.07c-0.17-0.05-0.36-0.12-0.56-0.22c-0.64-0.3-1.09-0.79-1.33-1.48l-8.38-16.53v39.07
	c0,0.69-0.26,1.3-0.78,1.82c-0.52,0.52-1.12,0.78-1.82,0.78c-0.74,0-1.37-0.26-1.89-0.78c-0.52-0.52-0.78-1.12-0.78-1.82V3.26V3.11
	V3.04V2.97c0.05,0,0.07-0.02,0.07-0.07V2.82V2.67c0.05-0.1,0.12-0.3,0.22-0.59L159.88,2V1.93l0.07-0.07V1.78
	c0.05,0,0.07-0.02,0.07-0.07c0.1-0.1,0.16-0.17,0.19-0.22c0.02-0.05,0.09-0.1,0.19-0.15l0.07-0.07c0-0.05,0.02-0.07,0.07-0.07h0.07
	V1.11h0.07c0-0.05,0.02-0.07,0.07-0.07h0.07V0.96h0.07H161c0-0.05,0.02-0.07,0.07-0.07c0.05,0,0.07-0.01,0.07-0.04
	c0-0.02,0.02-0.04,0.07-0.04h0.07l0.07-0.07h0.07h0.07h0.07c0-0.05,0.02-0.07,0.07-0.07h0.07h0.15h0.15h0.07h0.07h0.07h0.07h0.07
	h0.07h0.07h0.07l0.07,0.07c0.2,0,0.4,0.05,0.59,0.15c0.05,0.05,0.1,0.07,0.15,0.07c0,0.05,0.02,0.07,0.07,0.07l0.07,0.07
	c0.05,0,0.1,0.03,0.15,0.07c0.15,0.15,0.27,0.25,0.37,0.3c0,0.05,0.02,0.07,0.07,0.07v0.07l0.07,0.07v0.07
	c0.05,0,0.07,0.03,0.07,0.07l0.07,0.07V2l0.07,0.07l11.19,21.94l11.19-21.94V2l0.07-0.07V1.85h0.07V1.78l0.07-0.07
	c0-0.05,0.02-0.07,0.07-0.07V1.56c0.2-0.2,0.34-0.32,0.44-0.37c0-0.05,0.02-0.07,0.07-0.07h0.07c0-0.05,0.02-0.07,0.07-0.07V0.96
	h0.07h0.07c0-0.05,0.02-0.07,0.07-0.07c0.05-0.05,0.11-0.07,0.19-0.07s0.16-0.02,0.26-0.07h0.07h0.07c0-0.05,0.02-0.07,0.07-0.07
	h0.07h0.07h0.07h0.07h0.15h0.15h0.15h0.07h0.07h0.07v0.07h0.07h0.07h0.07h0.07v0.07h0.15l0.07,0.07h0.07l0.07,0.07h0.15v0.07h0.07
	v0.07h0.07l0.07,0.07c0.05,0,0.07,0.03,0.07,0.07h0.07l0.07,0.07c0.1,0.05,0.2,0.17,0.3,0.37c0.05,0,0.07,0.03,0.07,0.07l0.07,0.07
	v0.07L191.46,2l0.07,0.07c0.1,0.2,0.15,0.37,0.15,0.52v0.07h0.07v0.15v0.07v0.07v0.07v0.07v0.15V53.23z"/>
<path fill="#FFFFFF" d="M208.29,56.12c-3.46,0-6.38-0.99-8.75-2.96c-0.94-0.79-1.87-1.99-2.78-3.6c-0.92-1.61-1.37-3.79-1.37-6.56
	c0-0.74,0.26-1.36,0.78-1.85c0.52-0.49,1.15-0.74,1.89-0.74c0.69,0,1.29,0.25,1.78,0.74c0.49,0.5,0.74,1.11,0.74,1.85
	c0,1.63,0.23,2.96,0.7,4s1.08,1.84,1.82,2.41c0.74,0.57,1.57,0.96,2.48,1.19c0.91,0.22,1.82,0.33,2.71,0.33
	c0.49,0,1.2-0.06,2.11-0.18c0.91-0.12,1.82-0.46,2.71-1c0.89-0.54,1.67-1.33,2.33-2.37s1-2.5,1-4.37c0-1.83-0.26-3.43-0.78-4.82
	c-0.52-1.38-1.24-2.62-2.15-3.71c-0.92-1.09-1.96-2.09-3.15-3c-1.19-0.91-2.45-1.84-3.78-2.78c-1.19-0.84-2.38-1.73-3.6-2.67
	c-1.21-0.94-2.31-1.98-3.3-3.11c-2.32-2.72-3.51-5.86-3.56-9.42c0-0.2,0.01-0.59,0.04-1.19c0.02-0.59,0.11-1.28,0.26-2.08
	c0.45-2.52,1.43-4.62,2.97-6.3c2.22-2.32,5.21-3.48,8.97-3.48c3.8,0,6.75,1.16,8.82,3.48c0.74,0.84,1.33,1.8,1.78,2.89
	c0.44,1.09,0.72,2.27,0.82,3.56c0.1,0.89,0.14,1.64,0.11,2.26c-0.03,0.62-0.06,0.98-0.11,1.08c-0.15,0.64-0.32,1.21-0.52,1.71
	c-0.25,0.4-0.54,0.74-0.89,1.04c-0.35,0.3-0.87,0.4-1.56,0.3c-0.69-0.1-1.19-0.36-1.48-0.78c-0.3-0.42-0.49-0.85-0.59-1.3
	c-0.15-0.54-0.17-1.11-0.07-1.7c0.1-0.69,0.1-1.36,0-2c-0.1-0.54-0.25-1.15-0.44-1.82c-0.2-0.67-0.52-1.27-0.96-1.82
	c-0.99-1.19-2.62-1.78-4.89-1.78c-2.27,0-3.98,0.64-5.12,1.93c-0.54,0.54-0.95,1.16-1.22,1.85c-0.27,0.69-0.46,1.31-0.56,1.85
	c-0.15,0.69-0.2,1.36-0.15,2v0.22c0,1.24,0.2,2.35,0.59,3.34c0.39,0.99,0.95,1.9,1.67,2.74c0.72,0.84,1.58,1.67,2.59,2.48
	s2.16,1.69,3.45,2.63c1.43,0.94,2.83,1.94,4.19,3c1.36,1.06,2.63,2.31,3.82,3.74c2.67,3.26,4,7.14,4,11.64
	c0,2.27-0.38,4.24-1.15,5.89c-0.77,1.66-1.78,3.01-3.04,4.08c-1.26,1.06-2.69,1.85-4.3,2.37C211.54,55.86,209.92,56.12,208.29,56.12
	z"/>
</svg>
