<?xml version="1.0" encoding="utf-8"?>
<!-- Generator: Adobe Illustrator 15.1.0, SVG Export Plug-In  -->
<!DOCTYPE svg PUBLIC "-//W3C//DTD SVG 1.1//EN" "http://www.w3.org/Graphics/SVG/1.1/DTD/svg11.dtd" [
	<!ENTITY ns_flows "http://ns.adobe.com/Flows/1.0/">
]>
<svg version="1.1"
	 xmlns="http://www.w3.org/2000/svg" xmlns:xlink="http://www.w3.org/1999/xlink" xmlns:a="http://ns.adobe.com/AdobeSVGViewerExtensions/3.0/"
	 x="0px" y="0px" width="360px" height="360px" viewBox="-75.69 -165.44 360 360" enable-background="new -75.69 -165.44 360 360"
	 xml:space="preserve">
<defs>
</defs>
<path fill="#FFFFFF" d="M5.08,0c0.7,0,1.35,0.13,1.95,0.39c0.6,0.26,1.13,0.63,1.6,1.09C9.09,1.96,9.46,2.5,9.72,3.11
	c0.26,0.62,0.39,1.27,0.39,1.97v23.34c0,0.47-0.23,0.7-0.7,0.7h-1.4c-0.47,0-0.7-0.23-0.7-0.7V5.08c0-0.64-0.22-1.18-0.66-1.62
	C6.22,3.02,5.69,2.8,5.08,2.8c-0.64,0-1.18,0.22-1.62,0.66C3.02,3.9,2.8,4.44,2.8,5.08v23.34c0,0.47-0.23,0.7-0.7,0.7H0.7
	c-0.47,0-0.7-0.23-0.7-0.7V5.08c0-0.7,0.13-1.36,0.4-1.97C0.66,2.5,1.02,1.96,1.49,1.49C1.96,1.02,2.5,0.66,3.11,0.39
	C3.72,0.13,4.38,0,5.08,0z"/>
<path fill="#FFFFFF" d="M16.55,2.8v10.38h3.81c0.47,0,0.7,0.24,0.7,0.7v1.4c0,0.18-0.07,0.34-0.2,0.48c-0.13,0.15-0.3,0.22-0.5,0.22
	h-3.81v10.33h3.81c0.2,0,0.37,0.07,0.5,0.22c0.13,0.15,0.2,0.31,0.2,0.48v1.4c0,0.47-0.23,0.7-0.7,0.7h-5.21
	c-0.41,0-0.74-0.13-1.01-0.39c-0.26-0.26-0.4-0.6-0.4-1.01V1.4c0-0.38,0.13-0.71,0.4-0.99C14.41,0.14,14.74,0,15.15,0h5.21
	c0.2,0,0.37,0.07,0.5,0.22c0.13,0.15,0.2,0.31,0.2,0.48v1.4c0,0.47-0.23,0.7-0.7,0.7H16.55z"/>
<path fill="#FFFFFF" d="M42.08,0.74v21.06c0,0.99-0.28,1.93-0.83,2.8l-2.36,4.16c-0.15,0.23-0.35,0.35-0.61,0.35h-2.45
	c-0.26,0-0.47-0.12-0.61-0.35l-1.8-3.2l-1.84,3.2c-0.15,0.23-0.35,0.35-0.61,0.35h-2.41c-0.32,0-0.52-0.12-0.61-0.35l-2.36-4.16
	c-0.58-0.85-0.88-1.78-0.88-2.8V0.74c0-0.47,0.23-0.7,0.7-0.7h1.4c0.47,0,0.7,0.23,0.7,0.7v21.06c0,0.26,0.04,0.5,0.13,0.7l2.1,3.77
	l2.15-3.77c0.09-0.2,0.13-0.44,0.13-0.7V0.74c0-0.47,0.23-0.7,0.7-0.7h1.4c0.47,0,0.7,0.23,0.7,0.7v21.06c0,0.26,0.04,0.5,0.13,0.7
	l2.1,3.77l2.15-3.77c0.03-0.12,0.05-0.22,0.07-0.33c0.01-0.1,0.02-0.23,0.02-0.37V0.74c0-0.2,0.07-0.37,0.22-0.5
	c0.15-0.13,0.31-0.2,0.48-0.2h1.4C41.85,0.04,42.08,0.28,42.08,0.74z"/>
<path fill="#FFFFFF" d="M59.29,6.53V5.04c0-0.61-0.22-1.14-0.66-1.58C58.2,3.02,57.67,2.8,57.06,2.8s-1.14,0.22-1.58,0.66
	c-0.44,0.44-0.66,0.96-0.66,1.58v19.05c0,0.61,0.22,1.14,0.66,1.57c0.44,0.44,0.96,0.66,1.58,0.66s1.14-0.22,1.58-0.66
	c0.44-0.44,0.66-0.96,0.66-1.57v-1.62c0-0.47,0.24-0.7,0.71-0.7h1.43c0.47,0,0.7,0.23,0.7,0.7v1.62c0,0.7-0.13,1.35-0.4,1.95
	c-0.26,0.6-0.63,1.13-1.11,1.6c-0.48,0.47-1.02,0.83-1.62,1.1c-0.6,0.26-1.25,0.39-1.96,0.39s-1.36-0.13-1.97-0.39
	c-0.61-0.26-1.15-0.63-1.6-1.1c-0.45-0.47-0.81-1-1.07-1.6c-0.26-0.6-0.4-1.25-0.4-1.95V5.04c0-0.7,0.13-1.35,0.4-1.95
	c0.26-0.6,0.62-1.13,1.07-1.6c0.45-0.47,0.99-0.83,1.6-1.09C55.7,0.13,56.36,0,57.06,0s1.35,0.13,1.96,0.39
	c0.6,0.26,1.14,0.63,1.62,1.09c0.48,0.47,0.85,1,1.11,1.6c0.26,0.6,0.4,1.25,0.4,1.95v1.49c0,0.47-0.23,0.7-0.7,0.7h-1.43
	C59.53,7.22,59.29,6.99,59.29,6.53z"/>
<path fill="#FFFFFF" d="M70.37,0c0.7,0,1.35,0.13,1.95,0.39c0.6,0.26,1.13,0.63,1.6,1.09c0.47,0.47,0.83,1.01,1.09,1.62
	c0.26,0.62,0.4,1.27,0.4,1.97v23.34c0,0.47-0.23,0.7-0.7,0.7h-1.4c-0.47,0-0.7-0.23-0.7-0.7V15.94h-4.51v12.48
	c0,0.47-0.23,0.7-0.7,0.7h-1.4c-0.18,0-0.34-0.07-0.48-0.2c-0.15-0.13-0.22-0.3-0.22-0.5V5.08c0-0.7,0.13-1.36,0.39-1.97
	c0.26-0.61,0.63-1.15,1.09-1.62c0.47-0.47,1.01-0.83,1.62-1.09C69.01,0.13,69.67,0,70.37,0z M72.6,13.14V5.08
	c0-0.64-0.22-1.18-0.66-1.62c-0.44-0.44-0.96-0.66-1.58-0.66c-0.64,0-1.18,0.22-1.62,0.66c-0.44,0.44-0.66,0.98-0.66,1.62v8.06H72.6
	z"/>
<path fill="#FFFFFF" d="M88.89,10.9c0,1.46-0.51,2.67-1.53,3.63c1.02,0.96,1.53,2.19,1.53,3.68v10.2c0,0.47-0.23,0.7-0.7,0.7h-1.4
	c-0.47,0-0.7-0.23-0.7-0.7v-10.2c0-0.64-0.22-1.18-0.66-1.62s-0.96-0.66-1.58-0.66h-2.23v12.48c0,0.21-0.07,0.37-0.22,0.5
	c-0.15,0.13-0.31,0.2-0.48,0.2h-1.4c-0.47,0-0.7-0.23-0.7-0.7V1.4c0-0.38,0.13-0.71,0.39-0.99C79.48,0.14,79.81,0,80.22,0h3.63
	c0.7,0,1.36,0.13,1.97,0.39c0.61,0.26,1.15,0.63,1.6,1.09c0.45,0.47,0.81,1.01,1.07,1.62c0.26,0.62,0.39,1.27,0.39,1.97V10.9z
	 M86.09,5.08c0-0.64-0.22-1.18-0.66-1.62C85,3.02,84.47,2.8,83.86,2.8h-2.23v10.34h2.23c0.61,0,1.14-0.22,1.58-0.66
	c0.44-0.44,0.66-0.96,0.66-1.58V5.08z"/>
<path fill="#FFFFFF" d="M98.77,0.22c0.13,0.15,0.2,0.31,0.2,0.48v1.4c0,0.47-0.23,0.7-0.7,0.7h-1.97v25.62c0,0.47-0.23,0.7-0.7,0.7
	h-1.4c-0.47,0-0.7-0.23-0.7-0.7V2.8h-1.97c-0.47,0-0.7-0.23-0.7-0.7V0.7c0-0.18,0.07-0.34,0.2-0.48S91.32,0,91.52,0h6.74
	C98.47,0,98.64,0.07,98.77,0.22z"/>
<path fill="#FFFFFF" d="M105.97,0c0.7,0,1.35,0.13,1.95,0.39c0.6,0.26,1.13,0.63,1.6,1.09c0.47,0.47,0.83,1.01,1.09,1.62
	c0.26,0.62,0.39,1.27,0.39,1.97v19.01c0,0.7-0.13,1.36-0.39,1.97c-0.26,0.61-0.63,1.14-1.09,1.6c-0.47,0.45-1,0.81-1.6,1.07
	c-0.6,0.26-1.25,0.39-1.95,0.39c-0.7,0-1.36-0.13-1.97-0.39c-0.61-0.26-1.15-0.62-1.62-1.07c-0.47-0.45-0.83-0.99-1.09-1.6
	c-0.26-0.62-0.4-1.27-0.4-1.97V5.08c0-0.7,0.13-1.36,0.4-1.97c0.26-0.61,0.63-1.15,1.09-1.62c0.47-0.47,1.01-0.83,1.62-1.09
	C104.61,0.13,105.27,0,105.97,0z M108.21,5.08c0-0.64-0.22-1.18-0.66-1.62c-0.44-0.44-0.96-0.66-1.58-0.66
	c-0.64,0-1.18,0.22-1.62,0.66c-0.44,0.44-0.66,0.98-0.66,1.62v19.01c0,0.61,0.22,1.14,0.66,1.57c0.44,0.44,0.98,0.66,1.62,0.66
	c0.61,0,1.14-0.22,1.58-0.66c0.44-0.44,0.66-0.96,0.66-1.57V5.08z"/>
<path fill="#FFFFFF" d="M121.91,6.53V5.04c0-0.61-0.22-1.14-0.66-1.58c-0.44-0.44-0.96-0.66-1.58-0.66s-1.14,0.22-1.58,0.66
	c-0.44,0.44-0.66,0.96-0.66,1.58v19.05c0,0.61,0.22,1.14,0.66,1.57c0.44,0.44,0.96,0.66,1.58,0.66s1.14-0.22,1.58-0.66
	c0.44-0.44,0.66-0.96,0.66-1.57V15.9h-1.53c-0.47,0-0.7-0.23-0.7-0.7v-1.4c0-0.47,0.23-0.7,0.7-0.7h3.63c0.47,0,0.7,0.24,0.7,0.7
	v10.29c0,0.7-0.13,1.35-0.39,1.95c-0.26,0.6-0.63,1.13-1.1,1.6c-0.47,0.47-1,0.83-1.6,1.1c-0.6,0.26-1.25,0.39-1.95,0.39
	s-1.35-0.13-1.95-0.39c-0.6-0.26-1.13-0.63-1.6-1.1c-0.47-0.47-0.83-1-1.09-1.6c-0.26-0.6-0.4-1.25-0.4-1.95V5.04
	c0-0.7,0.13-1.35,0.4-1.95c0.26-0.6,0.63-1.13,1.09-1.6c0.47-0.47,1-0.83,1.6-1.09c0.6-0.26,1.25-0.39,1.95-0.39
	s1.35,0.13,1.95,0.39c0.6,0.26,1.13,0.63,1.6,1.09c0.47,0.47,0.83,1,1.1,1.6c0.26,0.6,0.39,1.25,0.39,1.95v1.49
	c0,0.47-0.23,0.7-0.7,0.7h-1.4C122.15,7.22,121.91,6.99,121.91,6.53z"/>
<path fill="#FFFFFF" d="M138.2,10.9c0,1.46-0.51,2.67-1.53,3.63c1.02,0.96,1.53,2.19,1.53,3.68v10.2c0,0.47-0.23,0.7-0.7,0.7h-1.4
	c-0.47,0-0.7-0.23-0.7-0.7v-10.2c0-0.64-0.22-1.18-0.66-1.62c-0.44-0.44-0.96-0.66-1.58-0.66h-2.23v12.48c0,0.21-0.07,0.37-0.22,0.5
	c-0.15,0.13-0.31,0.2-0.48,0.2h-1.4c-0.47,0-0.7-0.23-0.7-0.7V1.4c0-0.38,0.13-0.71,0.39-0.99c0.26-0.28,0.6-0.42,1.01-0.42h3.63
	c0.7,0,1.36,0.13,1.97,0.39c0.61,0.26,1.15,0.63,1.6,1.09c0.45,0.47,0.81,1.01,1.07,1.62c0.26,0.62,0.39,1.27,0.39,1.97V10.9z
	 M135.4,5.08c0-0.64-0.22-1.18-0.66-1.62c-0.44-0.44-0.96-0.66-1.58-0.66h-2.23v10.34h2.23c0.61,0,1.14-0.22,1.58-0.66
	c0.44-0.44,0.66-0.96,0.66-1.58V5.08z"/>
<path fill="#FFFFFF" d="M146.92,0c0.7,0,1.35,0.13,1.95,0.39c0.6,0.26,1.13,0.63,1.6,1.09c0.47,0.47,0.83,1.01,1.09,1.62
	c0.26,0.62,0.39,1.27,0.39,1.97v23.34c0,0.47-0.23,0.7-0.7,0.7h-1.4c-0.47,0-0.7-0.23-0.7-0.7V15.94h-4.51v12.48
	c0,0.47-0.23,0.7-0.7,0.7h-1.4c-0.17,0-0.33-0.07-0.48-0.2c-0.15-0.13-0.22-0.3-0.22-0.5V5.08c0-0.7,0.13-1.36,0.4-1.97
	c0.26-0.61,0.63-1.15,1.09-1.62c0.47-0.47,1.01-0.83,1.62-1.09C145.56,0.13,146.22,0,146.92,0z M149.15,13.14V5.08
	c0-0.64-0.22-1.18-0.66-1.62c-0.44-0.44-0.96-0.66-1.58-0.66c-0.64,0-1.18,0.22-1.62,0.66c-0.44,0.44-0.66,0.98-0.66,1.62v8.06
	H149.15z"/>
<path fill="#FFFFFF" d="M160.62,0c0.7,0,1.35,0.13,1.95,0.39c0.6,0.26,1.13,0.63,1.6,1.09c0.47,0.47,0.83,1.01,1.1,1.62
	c0.26,0.62,0.39,1.27,0.39,1.97v5.82c0,0.7-0.13,1.36-0.39,1.97c-0.26,0.61-0.63,1.14-1.1,1.6c-0.47,0.45-1,0.81-1.6,1.07
	c-0.6,0.26-1.25,0.39-1.95,0.39h-2.28v12.48c0,0.21-0.06,0.37-0.2,0.5c-0.13,0.13-0.29,0.2-0.46,0.2h-1.4c-0.47,0-0.7-0.23-0.7-0.7
	V15.94v-2.8V0.74V0.7c0-0.18,0.07-0.34,0.2-0.48c0.13-0.15,0.3-0.22,0.5-0.22H160.62z M162.85,5.08c0-0.64-0.22-1.18-0.66-1.62
	c-0.44-0.44-0.96-0.66-1.58-0.66h-2.28v10.34h2.28c0.61,0,1.14-0.22,1.58-0.66c0.44-0.44,0.66-0.96,0.66-1.58V5.08z"/>
<path fill="#FFFFFF" d="M178.29,0.22c0.13,0.15,0.2,0.31,0.2,0.48v27.72c0,0.47-0.23,0.7-0.7,0.7h-1.36c-0.47,0-0.7-0.23-0.7-0.7
	V15.98h-4.51v12.44c0,0.47-0.23,0.7-0.7,0.7h-1.4c-0.47,0-0.7-0.23-0.7-0.7V0.74V0.7c0-0.18,0.07-0.34,0.2-0.48s0.3-0.22,0.5-0.22
	h1.4c0.2,0,0.37,0.07,0.5,0.22c0.13,0.15,0.2,0.31,0.2,0.48v12.48h4.51V0.7c0-0.18,0.06-0.34,0.2-0.48c0.13-0.15,0.3-0.22,0.5-0.22
	h1.36C177.99,0,178.16,0.07,178.29,0.22z"/>
<path fill="#FFFFFF" d="M184.93,2.8v10.38h3.81c0.47,0,0.7,0.24,0.7,0.7v1.4c0,0.18-0.07,0.34-0.2,0.48
	c-0.13,0.15-0.3,0.22-0.5,0.22h-3.81v10.33h3.81c0.2,0,0.37,0.07,0.5,0.22s0.2,0.31,0.2,0.48v1.4c0,0.47-0.23,0.7-0.7,0.7h-5.21
	c-0.41,0-0.74-0.13-1.01-0.39c-0.26-0.26-0.4-0.6-0.4-1.01V1.4c0-0.38,0.13-0.71,0.4-0.99S183.11,0,183.52,0h5.21
	c0.2,0,0.37,0.07,0.5,0.22s0.2,0.31,0.2,0.48v1.4c0,0.47-0.23,0.7-0.7,0.7H184.93z"/>
<path fill="#FFFFFF" d="M202.92,10.9c0,1.46-0.51,2.67-1.53,3.63c1.02,0.96,1.53,2.19,1.53,3.68v10.2c0,0.47-0.23,0.7-0.7,0.7h-1.4
	c-0.47,0-0.7-0.23-0.7-0.7v-10.2c0-0.64-0.22-1.18-0.66-1.62c-0.44-0.44-0.96-0.66-1.58-0.66h-2.23v12.48c0,0.21-0.07,0.37-0.22,0.5
	c-0.15,0.13-0.31,0.2-0.48,0.2h-1.4c-0.47,0-0.7-0.23-0.7-0.7V1.4c0-0.38,0.13-0.71,0.39-0.99c0.26-0.28,0.6-0.42,1.01-0.42h3.63
	c0.7,0,1.36,0.13,1.97,0.39c0.61,0.26,1.15,0.63,1.6,1.09c0.45,0.47,0.81,1.01,1.07,1.62c0.26,0.62,0.39,1.27,0.39,1.97V10.9z
	 M200.12,5.08c0-0.64-0.22-1.18-0.66-1.62c-0.44-0.44-0.96-0.66-1.58-0.66h-2.23v10.34h2.23c0.61,0,1.14-0.22,1.58-0.66
	c0.44-0.44,0.66-0.96,0.66-1.58V5.08z"/>
<path fill="#FFFFFF" d="M213.39,6.53V5.04c0-0.61-0.22-1.14-0.66-1.58c-0.44-0.44-0.96-0.66-1.58-0.66s-1.14,0.22-1.58,0.66
	c-0.44,0.44-0.66,0.96-0.66,1.58v2.23c0,0.26,0.01,0.42,0.02,0.48c0.01,0.06,0.05,0.15,0.11,0.26l6.31,11.12
	c0.2,0.38,0.37,0.67,0.48,0.88s0.2,0.39,0.24,0.57c0.04,0.18,0.07,0.36,0.09,0.55s0.02,0.45,0.02,0.77v2.19
	c0,0.7-0.13,1.36-0.39,1.97c-0.26,0.61-0.63,1.14-1.09,1.6c-0.47,0.45-1,0.81-1.6,1.07c-0.6,0.26-1.25,0.39-1.95,0.39
	s-1.35-0.13-1.95-0.39c-0.6-0.26-1.13-0.62-1.6-1.07c-0.47-0.45-0.83-0.99-1.09-1.6c-0.26-0.62-0.39-1.27-0.39-1.97V22.6
	c0-0.18,0.07-0.34,0.2-0.48c0.13-0.14,0.3-0.22,0.5-0.22h1.4c0.21,0,0.37,0.07,0.5,0.22c0.13,0.15,0.2,0.31,0.2,0.48v1.49
	c0,0.64,0.22,1.18,0.66,1.62c0.44,0.44,0.96,0.66,1.58,0.66s1.14-0.22,1.58-0.66c0.44-0.44,0.66-0.98,0.66-1.62v-2.19
	c0-0.23-0.01-0.38-0.02-0.44c-0.02-0.06-0.05-0.15-0.11-0.26l-6.31-11.12c-0.2-0.38-0.37-0.67-0.48-0.88
	c-0.12-0.21-0.2-0.39-0.24-0.57c-0.04-0.18-0.07-0.37-0.09-0.57c-0.01-0.2-0.02-0.47-0.02-0.79V5.04c0-0.7,0.13-1.35,0.39-1.95
	c0.26-0.6,0.63-1.13,1.09-1.6c0.47-0.47,1-0.83,1.6-1.09c0.6-0.26,1.25-0.39,1.95-0.39s1.35,0.13,1.95,0.39
	c0.6,0.26,1.13,0.63,1.6,1.09c0.47,0.47,0.83,1,1.09,1.6c0.26,0.6,0.39,1.25,0.39,1.95v1.49c0,0.47-0.23,0.7-0.7,0.7h-1.4
	C213.62,7.22,213.39,6.99,213.39,6.53z"/>
</svg>
