<?xml version="1.0" encoding="utf-8"?>
<!-- Generator: Adobe Illustrator 15.1.0, SVG Export Plug-In  -->
<!DOCTYPE svg PUBLIC "-//W3C//DTD SVG 1.1//EN" "http://www.w3.org/Graphics/SVG/1.1/DTD/svg11.dtd" [
	<!ENTITY ns_flows "http://ns.adobe.com/Flows/1.0/">
]>
<svg version="1.1"
	 xmlns="http://www.w3.org/2000/svg" xmlns:xlink="http://www.w3.org/1999/xlink" xmlns:a="http://ns.adobe.com/AdobeSVGViewerExtensions/3.0/"
	 x="0px" y="0px" width="360px" height="360px" viewBox="-21.02 -137.65 360 360" enable-background="new -21.02 -137.65 360 360"
	 xml:space="preserve">
<defs>
</defs>
<path fill="#FFFFFF" d="M138.18,20.9c-2.46,2.49-1.32,5.4,2.04,5.4c2.6,0,4.64-2.11,6.37-5.12l10.24-17.89
	c-1.63,0.87-3.63,1.35-5.57,1.35c-0.93,0-3.11-0.14-3.94-0.14c-3.08,0-5.19,1.87-5.19,3.77c0,1.11,0.48,2.11,1.73,2.8l-1.77,2.21
	c-1.94-1.04-2.87-2.84-2.87-4.67c0-3.98,3.63-6.89,8.86-6.89c0.76,0,2.8,0.03,3.6,0.03c3.84,0,7.06-1.76,7.06-1.76l1.87,3.15h-0.04
	l-10.8,18.72c-3.05,5.26-6.4,7.27-9.97,7.27c-5.43,0-8.2-5.99-3.56-10.1L138.18,20.9z"/>
<path fill="#FFFFFF" d="M172.85,18.48c0.48,0.21,1.11,0.76,1.35,1.25c-2.98,3.46-6.4,6.64-9.38,6.64c-2.91,0-3.98-2.46-2.46-5.12
	l4.67-8.13c1.56-2.66-0.9-3.56-6.44,3.39l-5.47,9.52h-3.63l14.36-24.92h3.6l-5.75,10c1.8-1.87,3.46-2.73,5.02-2.73
	c2.01,0,3.5,1.97,1.94,4.71l-5.19,9.1c-0.83,1.42-0.38,1.97,0.42,1.97c1.59,0,4.12-2.39,6.71-5.4L172.85,18.48z"/>
<path fill="#FFFFFF" d="M176.03,19.24l-0.35,0.62c-1.66,2.91-0.35,4.29,1.87,4.29c2.53,0,5.85-2.39,8.45-5.4l0.24-0.28
	c0.48,0.21,1.11,0.76,1.35,1.25c-2.98,3.46-7.03,6.64-11.11,6.64c-4.26,0-6.19-3.53-3.95-7.37l3.77-6.47
	c1.52-2.63,3.84-4.15,6.75-4.15c2.94,0,4.81,2.49,2.87,5.81l-0.52,0.9C182.71,19.76,178.35,20.21,176.03,19.24z M177.07,17.48
	c1.35,0.48,3.67,0.55,5.4-2.39l0.52-0.9c2.15-3.74-1.52-4.33-3.6-0.76L177.07,17.48z"/>
<path fill="#FFFFFF" d="M42.25,68.32l4.33-28.55l-5.54,9.69C19.52,86.83-8.91,64.28,2.68,44.09c6.69-11.65,23.76-12.57,28.03-1.21
	l-4.21,2.19c-3-7.27-14.13-6.46-18.57,1.21C-1.3,62.2,20.68,75.35,35.56,49.46l13.04-22.67h6l-4.38,28.72l13.55-23.42
	c7.04-12.11,16.09-7.67,17.36-2.83l-3.98,2.19c-1.73-3.92-5.65-3.29-9,2.48L48.31,68.32H42.25z"/>
<path fill="#FFFFFF" d="M77.48,63.64c-8.07,10.21-22.55,5.42-15-7.55l2.6-4.44l2.94-5.13c3.46-6,7.04-7.84,11.65-7.84
	c5.65,0,9,5.94,5.36,12.23l-5.65,9.75c3-0.06,6.35-1.5,9.06-4.44l0.4-0.46c0.81,0.35,1.85,1.27,2.25,2.08
	c-3.06,3.63-8.71,5.82-12.29,5.82H77.48z M75.75,56.15h0.29l4.38-7.5c3.63-6.23-2.13-9.06-6.34-1.9l-2.88,4.9l-4.56,7.9
	c-3.58,6.23,3.29,7.15,6.11,2.31l0.06-0.12c-0.35-0.58-0.58-1.27-0.58-2.02C72.24,57.76,73.79,56.15,75.75,56.15z"/>
<path fill="#FFFFFF" d="M102.17,49.34c0.69-1.21,0.4-2.42-0.35-3.4l-0.81-0.98c-4.79,6.52-7.04,9.52-9.92,12.86
	c-0.86-0.58-1.73-1.33-2.25-2.08c3.92-4.62,7.5-9.69,10.15-13.44l-0.52-0.69c-2.13-2.77-1.85-6.17,1.56-9.23l3.12,3.4
	c-1.21,1.15-1.21,2.37-0.35,3.46l3.35,4.04c1.96,2.36,2.94,4.5,0.87,8.13l-6,10.5c-1.38,2.36-0.64,3.29,0.69,3.29
	c2.65,0,6.86-3.98,11.19-9l0.4-0.46c0.81,0.35,1.85,1.27,2.25,2.08c-4.96,5.77-10.67,11.07-15.63,11.07c-4.85,0-6.63-4.1-4.09-8.54
	L102.17,49.34z"/>
<path fill="#FFFFFF" d="M156.56,55.74c0.81,0.35,1.85,1.27,2.25,2.08c-4.96,5.77-10.67,11.07-15.63,11.07c-4.85,0-6.63-4.1-4.1-8.54
	l7.79-13.55c2.88-4.96-2.48-6.23-13.79,9.75l-6.75,11.77h-6.11l12.4-21.51c2.83-4.9-2.42-6.17-13.55,9.4l-6.98,12.11h-6.06
	l16.67-28.84h6l-3.58,6.23c3.81-4.79,7.21-6.81,10.32-6.81c3.17,0,5.59,3.06,3.52,7.27c3.98-5.08,7.5-7.27,10.73-7.27
	c3.35,0,5.83,3.29,3.23,7.84l-8.65,15.17c-1.38,2.36-0.63,3.29,0.69,3.29c2.65,0,6.86-3.98,11.19-9L156.56,55.74z"/>
<path fill="#FFFFFF" d="M184.87,55.74c0.81,0.35,1.85,1.27,2.25,2.08c-4.96,5.77-10.67,11.07-15.63,11.07
	c-3.06,0-4.9-1.62-5.19-3.92c-2.88,2.36-5.88,3.92-8.31,3.92c-4.85,0-6.63-4.1-4.1-8.54l8.42-14.54c2.54-4.38,7.04-6.92,10.27-6.92
	c3.92,0,6.52,3.52,6.29,6.06h3.4l-9.69,16.96c-1.38,2.36-0.63,3.29,0.69,3.29c2.65,0,6.86-3.98,11.19-9L184.87,55.74z M159.09,61.92
	c-1.38,2.36-0.63,3.29,0.69,3.29c2.48,0,6.06-2.71,9.69-8.42l4.67-8.19c2.94-5.42-3.46-6.86-6.69-1.27L159.09,61.92z"/>
<path fill="#FFFFFF" d="M222.18,61.63c-1.67,2.94-5.08,4.62-8.48,4.62c-6.17,0-9.8-4.62-9.8-9.98c0-10.04,9.86-13.55,19.96-18.34
	c7.67-3.63,16.21-7.21,22.67-12.98l3.4,3.92l-22.61,38.76c4.73-2.02,9-5.71,13.96-11.42l0.4-0.46c0.81,0.35,1.85,1.27,2.25,2.08
	c-6.58,7.67-12.69,11.88-18.98,13.84l-4.56,7.9c-4.33,7.38-13.15,6.17-13.15,0.4c0-4.5,5.07-7.84,13.21-10.27l20.71-36.05
	c-4.33,3.4-10.09,5.83-15.46,8.25c-8.42,3.81-17.19,6.29-17.19,14.07c0,3.63,2.31,6.11,5.36,6.11c1.9,0,4.04-1.04,5.54-3.17
	L222.18,61.63z M215.38,78.58l2.77-4.84c-4.67,1.79-6.06,3.58-6.06,5.13C212.09,80.49,214.11,80.83,215.38,78.58z"/>
<path fill="#FFFFFF" d="M246.98,57.01l-0.58,1.04c-2.77,4.84-0.58,7.15,3.12,7.15c4.21,0,9.75-3.98,14.07-9l0.4-0.46
	c0.81,0.35,1.85,1.27,2.25,2.08c-4.96,5.77-11.71,11.07-18.51,11.07c-7.09,0-10.32-5.88-6.58-12.29l6.29-10.79
	c2.54-4.38,6.4-6.92,11.25-6.92c4.9,0,8.02,4.15,4.79,9.69l-0.87,1.5C258.11,57.88,250.84,58.63,246.98,57.01z M248.71,54.07
	c2.25,0.81,6.11,0.92,9-3.98l0.87-1.5c3.58-6.23-2.54-7.21-6-1.27L248.71,54.07z"/>
<path fill="#FFFFFF" d="M292.31,55.74c0.81,0.35,1.85,1.27,2.25,2.08c-4.96,5.77-10.67,11.07-15.63,11.07
	c-3.06,0-4.9-1.62-5.19-3.92c-2.88,2.36-5.88,3.92-8.31,3.92c-4.85,0-6.63-4.1-4.1-8.54l8.42-14.54c2.54-4.38,7.04-6.92,10.27-6.92
	c3.92,0,6.52,3.52,6.29,6.06h3.4l-9.69,16.96c-1.38,2.36-0.63,3.29,0.69,3.29c2.65,0,6.86-3.98,11.19-9L292.31,55.74z M266.53,61.92
	c-1.38,2.36-0.63,3.29,0.69,3.29c2.48,0,6.06-2.71,9.69-8.42l4.67-8.19c2.94-5.42-3.46-6.86-6.69-1.27L266.53,61.92z"/>
<path fill="#FFFFFF" d="M320.63,55.74c0.81,0.35,1.85,1.27,2.25,2.08c-4.96,5.77-10.67,11.07-15.63,11.07c-4.84,0-6.63-4.1-4.1-8.54
	l7.79-13.55c2.59-4.44-1.5-5.94-10.67,5.54l-9.17,15.98h-6.06l16.67-28.84h6l-2.25,3.92c3-3.11,5.71-4.5,8.31-4.5
	c3.35,0,5.83,3.29,3.23,7.84l-8.65,15.17c-1.38,2.36-0.63,3.29,0.69,3.29c2.65,0,6.86-3.98,11.19-9L320.63,55.74z"/>
</svg>
