<?xml version="1.0" encoding="utf-8"?>
<!-- Generator: Adobe Illustrator 15.1.0, SVG Export Plug-In  -->
<!DOCTYPE svg PUBLIC "-//W3C//DTD SVG 1.1//EN" "http://www.w3.org/Graphics/SVG/1.1/DTD/svg11.dtd" [
	<!ENTITY ns_flows "http://ns.adobe.com/Flows/1.0/">
]>
<svg version="1.1"
	 xmlns="http://www.w3.org/2000/svg" xmlns:xlink="http://www.w3.org/1999/xlink" xmlns:a="http://ns.adobe.com/AdobeSVGViewerExtensions/3.0/"
	 x="0px" y="0px" width="390px" height="96px" viewBox="0 0 390 96" enable-background="new 0 0 390 96" xml:space="preserve">
<defs>
</defs>
<g>
	<defs>
		<rect id="SVGID_4_" x="0" width="96" height="96"/>
	</defs>
	<clipPath id="SVGID_5_">
		<use xlink:href="#SVGID_4_"  overflow="visible"/>
	</clipPath>
	<path clip-path="url(#SVGID_5_)" fill="#22282D" d="M72.409,38.904c0.01,0.518,0.008,1.039-0.004,1.564
		c-0.381,15.981-12.984,34.12-35.229,33.59c-6.83-0.164-13.14-2.316-18.41-5.877c0.944,0.135,1.904,0.215,2.881,0.236
		c5.668,0.137,10.928-1.674,15.144-4.818c-5.29-0.223-9.672-3.828-11.096-8.668c0.733,0.16,1.489,0.252,2.27,0.271
		c1.104,0.027,2.176-0.096,3.196-0.348c-5.506-1.244-9.559-6.232-9.42-12.088c0.002-0.053,0.004-0.104,0.006-0.154
		c1.607,0.945,3.462,1.535,5.442,1.646c-3.194-2.252-5.24-6-5.141-10.195c0.052-2.219,0.698-4.283,1.782-6.043
		c5.79,7.461,14.588,12.486,24.626,13.23c-0.187-0.891-0.271-1.816-0.248-2.764c0.16-6.678,5.704-11.965,12.382-11.805
		c3.479,0.082,6.586,1.629,8.736,4.029c2.768-0.477,5.381-1.424,7.75-2.752c-0.973,2.805-2.947,5.127-5.479,6.562
		c2.453-0.234,4.803-0.83,6.992-1.738C76.913,35.172,74.81,37.254,72.409,38.904 M49.147,0.014
		C22.644-0.618,0.647,20.359,0.014,46.857C-0.618,73.36,20.357,95.354,46.859,95.987c26.501,0.631,48.496-20.338,49.128-46.84
		C96.618,22.648,75.649,0.646,49.147,0.014"/>
</g>
<g>
	<defs>
		<rect id="SVGID_3_" x="98.001" y="0" width="96" height="96"/>
	</defs>
	<clipPath id="SVGID_7_">
		<use xlink:href="#SVGID_3_"  overflow="visible"/>
	</clipPath>
	<path clip-path="url(#SVGID_7_)" fill="#22282D" d="M148.053,48.28c0.391-0.119,0.787-0.225,1.182-0.33
		c-0.707-1.707-1.481-3.42-2.293-5.111c-15.424,4.221-30.11,3.539-30.636,3.508c-0.018,0.32-0.04,0.627-0.048,0.947
		c-0.184,7.643,2.534,14.676,7.148,20.059c-0.004-0.008-0.013-0.016-0.013-0.016S131.88,53.09,148.053,48.28"/>
	<path clip-path="url(#SVGID_7_)" fill="#22282D" d="M144.587,38.2c-4.931-9.268-10.252-16.863-10.637-17.402
		c-8.388,3.719-14.76,11.215-16.909,20.381C117.824,41.202,130.217,41.657,144.587,38.2"/>
	<path clip-path="url(#SVGID_7_)" fill="#22282D" d="M166.174,26.147c-5.127-4.742-11.936-7.705-19.466-7.885
		c-2.414-0.059-4.767,0.18-7.028,0.666c0.433,0.607,5.844,8.154,10.703,17.617C161.711,32.604,166.098,26.254,166.174,26.147"/>
	<path clip-path="url(#SVGID_7_)" fill="#22282D" d="M152.571,41.03c0.656,1.436,1.289,2.895,1.873,4.359
		c0.205,0.527,0.408,1.043,0.604,1.557c10.25-1.043,20.266,1.363,20.691,1.459c0.102-7.053-2.266-13.584-6.32-18.75
		C169.36,29.733,164.426,36.514,152.571,41.03"/>
	<path clip-path="url(#SVGID_7_)" fill="#22282D" d="M150.946,52.987c-17.7,5.703-23.721,17.898-23.78,18.016
		c4.952,4.059,11.229,6.576,18.124,6.74c4.121,0.1,8.066-0.645,11.669-2.08c-0.377-2.607-1.889-11.758-5.814-22.734
		C151.079,52.95,151.01,52.967,150.946,52.987"/>
	<path clip-path="url(#SVGID_7_)" fill="#22282D" d="M177.766,62.325c-0.922,2.045-2.051,4.012-3.355,5.838
		c-1.287,1.816-2.758,3.514-4.371,5.053c-1.613,1.535-3.379,2.926-5.252,4.129c-1.893,1.213-3.91,2.246-5.996,3.072
		c-2.123,0.836-4.342,1.463-6.592,1.871c-2.305,0.418-4.67,0.602-7.03,0.545c-2.359-0.057-4.714-0.352-6.996-0.879
		c-2.228-0.514-4.414-1.248-6.496-2.184c-2.044-0.926-4.01-2.055-5.842-3.354c-1.812-1.293-3.512-2.766-5.048-4.375
		c-1.538-1.613-2.928-3.379-4.128-5.256c-1.212-1.885-2.246-3.904-3.072-5.992c-0.838-2.125-1.47-4.342-1.876-6.594
		c-0.412-2.305-0.594-4.668-0.538-7.027c0.057-2.359,0.353-4.715,0.872-6.994c0.515-2.232,1.25-4.418,2.188-6.498
		c0.926-2.045,2.054-4.016,3.354-5.842c1.288-1.816,2.761-3.51,4.374-5.053c1.612-1.535,3.378-2.922,5.25-4.123
		c1.893-1.217,3.91-2.25,5.996-3.076c2.124-0.84,4.342-1.471,6.592-1.875c2.307-0.41,4.67-0.596,7.03-0.539
		c2.36,0.057,4.714,0.352,6.999,0.873c2.225,0.512,4.41,1.244,6.492,2.188c2.045,0.924,4.012,2.053,5.844,3.355
		c1.812,1.293,3.512,2.762,5.049,4.371c1.537,1.617,2.928,3.379,4.127,5.254c1.215,1.889,2.25,3.908,3.07,5.996
		c0.84,2.123,1.471,4.344,1.875,6.596c0.416,2.301,0.6,4.668,0.543,7.027c-0.055,2.36-0.352,4.709-0.877,6.995
		C179.44,58.059,178.706,60.241,177.766,62.325 M147.144,0.014C120.643-0.618,98.646,20.36,98.015,46.858
		c-0.631,26.502,20.34,48.498,46.842,49.129c26.501,0.631,48.5-20.338,49.128-46.84C194.618,22.649,173.645,0.647,147.144,0.014"/>
	<path clip-path="url(#SVGID_7_)" fill="#22282D" d="M156.75,51.682c3.645,10.814,5.021,19.584,5.281,21.385
		c6.785-4.348,11.699-11.391,13.219-19.648C174.645,53.204,166.387,50.374,156.75,51.682"/>
</g>
<polygon fill="#22282D" points="263.817,37.494 263.817,29.801 263.817,28.65 262.665,28.654 254.973,28.68 255,37.523 "/>
<g>
	<defs>
		<rect id="SVGID_2_" x="196" width="96.001" height="96"/>
	</defs>
	<clipPath id="SVGID_16_">
		<use xlink:href="#SVGID_2_"  overflow="visible"/>
	</clipPath>
	<path clip-path="url(#SVGID_16_)" fill="#22282D" d="M243.762,57.917c5.066,0,9.188-4.119,9.188-9.184c0-2-0.648-3.848-1.738-5.356
		c-1.668-2.311-4.383-3.83-7.449-3.83c-3.062,0-5.773,1.52-7.445,3.83c-1.09,1.508-1.738,3.355-1.738,5.356
		C234.579,53.797,238.7,57.917,243.762,57.917"/>
	<path clip-path="url(#SVGID_16_)" fill="#22282D" d="M269.856,43.377v21.364c0,5.562-4.523,10.084-10.086,10.084h-32.016
		c-5.562,0-10.082-4.521-10.082-10.084V43.377V32.725c0-5.562,4.52-10.084,10.082-10.084h32.016c5.562,0,10.086,4.521,10.086,10.084
		V43.377z M244,0c-26.508,0-47.999,21.488-47.999,47.999C196.001,74.508,217.493,96,244,96s48.001-21.492,48.001-48.002
		C292.001,21.488,270.508,0,244,0"/>
	<path clip-path="url(#SVGID_16_)" fill="#22282D" d="M258.032,48.733c0,7.867-6.398,14.271-14.27,14.271
		c-7.867,0-14.266-6.404-14.266-14.271c0-1.895,0.375-3.7,1.047-5.356h-7.789v21.364c0,2.758,2.246,5,5,5h32.016
		c2.758,0,5-2.242,5-5V43.377h-7.789C257.653,45.033,258.032,46.838,258.032,48.733"/>
</g>
<g>
	<defs>
		<rect id="SVGID_1_" x="294.001" width="96.001" height="96"/>
	</defs>
	<clipPath id="SVGID_20_">
		<use xlink:href="#SVGID_1_"  overflow="visible"/>
	</clipPath>
	<path clip-path="url(#SVGID_20_)" fill="#22282D" d="M368.736,71.315c0,2.135-1.771,3.863-3.959,3.863h-45.645
		c-2.188,0-3.961-1.729-3.961-3.863V25.139c0-2.133,1.773-3.865,3.961-3.865h45.645c2.188,0,3.959,1.732,3.959,3.865V71.315z
		 M342.003,0c-26.512,0-48,21.492-48,48c0,26.512,21.488,48,48,48c26.506,0,47.999-21.488,47.999-48
		C390.002,21.492,368.509,0,342.003,0"/>
	<path clip-path="url(#SVGID_20_)" fill="#22282D" d="M351.267,41.49c-4.293,0-6.215,2.355-7.291,4.016v0.08h-0.055
		c0.02-0.021,0.039-0.053,0.055-0.08v-3.445h-8.09c0.105,2.281,0,24.336,0,24.336h8.09V52.805c0-0.73,0.051-1.451,0.266-1.973
		c0.586-1.449,1.918-2.963,4.15-2.963c2.932,0,4.1,2.236,4.1,5.508v13.02h8.09V52.442C360.582,44.967,356.589,41.49,351.267,41.49"
		/>
	<path clip-path="url(#SVGID_20_)" fill="#22282D" d="M327.417,30.324c-2.766,0-4.576,1.82-4.576,4.205
		c0,2.334,1.754,4.209,4.471,4.209h0.051c2.822,0,4.578-1.875,4.578-4.209C331.89,32.145,330.185,30.324,327.417,30.324"/>
</g>
<rect x="323.32" y="42.061" fill="#22282D" width="8.092" height="24.336"/>
</svg>
