<?xml version="1.0" standalone="no"?>
<!DOCTYPE svg PUBLIC "-//W3C//DTD SVG 1.1//EN" "http://www.w3.org/Graphics/SVG/1.1/DTD/svg11.dtd" >
<svg xmlns="http://www.w3.org/2000/svg">
<metadata></metadata>
<defs>
<font id="eurostilebold" horiz-adv-x="1285" >
<font-face units-per-em="2048" ascent="1638" descent="-410" />
<missing-glyph horiz-adv-x="512" />
<glyph horiz-adv-x="2048" />
<glyph horiz-adv-x="2048" />
<glyph unicode="&#xd;" horiz-adv-x="2048" />
<glyph unicode=" "  horiz-adv-x="512" />
<glyph unicode="&#x09;" horiz-adv-x="512" />
<glyph unicode="&#xa0;" horiz-adv-x="512" />
<glyph unicode="!" horiz-adv-x="563" d="M144 1365h255l-19 -909h-220zM159 0v246h229v-246h-229z" />
<glyph unicode="&#x22;" horiz-adv-x="758" d="M91 1365h216l-31 -546h-154zM452 1365h216l-31 -546h-155z" />
<glyph unicode="#" d="M65 392l24 160h223l43 264h-222l25 160h222l62 389h172l-61 -389h273l61 389h175l-62 -389h221l-24 -160h-221l-44 -264h223l-25 -160h-222l-62 -392h-175l62 392h-273l-62 -392h-173l62 392h-222zM485 552h272l44 264h-273z" />
<glyph unicode="$" horiz-adv-x="1286" d="M48 396l1 49h243v-25q0 -133 42.5 -171.5t189.5 -38.5l36 -1v390q-287 0 -392 83t-105 311q0 221 105.5 302.5t391.5 81.5v140h164v-140q273 0 373.5 -78t100.5 -290v-33h-235l-1 26q0 160 -200 160h-38v-360l54 -2q271 -15 366 -94.5t95 -291.5q0 -228 -103.5 -320 t-361.5 -92l-50 -1v-161h-164v161l-46 1q-257 0 -361.5 88t-104.5 306zM309 991q0 -179 215 -179q2 0 36 -2v353l-35 -1q-216 0 -216 -171zM724 209h35q234 0 234 201q0 110 -52 145t-217 35v-381z" />
<glyph unicode="%" horiz-adv-x="1633" d="M47 1023q0 223 52.5 284.5t243.5 61.5q194 0 242 -55t48 -276q0 -237 -48 -298t-234 -61q-194 0 -249 62.5t-55 281.5zM184 1063q0 -210 19 -239t157 -29q134 0 134 137l2 101v90q0 86 -26.5 108t-130.5 22q-112 0 -133.5 -26.5t-21.5 -163.5zM320 0l859 1365h134 l-862 -1365h-131zM996 339q0 223 53 285t243 62q194 0 242 -55t48 -276q0 -237 -48 -298t-234 -61q-194 0 -249 62.5t-55 280.5zM1133 381q0 -211 19 -240t157 -29q134 0 134 137l2 101v90q0 86 -26.5 108t-130.5 22q-112 0 -133.5 -26.5t-21.5 -162.5z" />
<glyph unicode="&#x26;" horiz-adv-x="1421" d="M108 428q0 307 260 345q-112 98 -112 246q0 189 92.5 261t334.5 72q254 0 346.5 -73.5t92.5 -276.5l-1 -71h-230v40q0 123 -33.5 154.5t-163.5 31.5q-192 0 -192 -143q0 -97 100 -182l415 -356q10 52 10 97q0 37 -10 85h222v-44l-2 -119q0 -86 -25 -183l196 -166 l-123 -149l-164 138q-91 -147 -420 -147q-366 0 -479.5 84t-113.5 356zM354 427q0 -158 51 -201t238 -43q161 0 208.5 14.5t101.5 81.5l-448 374q-151 -22 -151 -226z" />
<glyph unicode="'" horiz-adv-x="398" d="M91 1365h216l-31 -546h-154z" />
<glyph unicode="(" horiz-adv-x="634" d="M102 478q0 637 61.5 763.5t369.5 126.5v-213q-125 0 -150 -64.5t-25 -388.5v-224v-225q0 -324 25 -388.5t150 -64.5v-213q-308 0 -369.5 127t-61.5 764z" />
<glyph unicode=")" horiz-adv-x="634" d="M101 -200q171 0 171 185l4 268v225v224l-4 268q0 185 -171 185v213q308 0 369.5 -126.5t61.5 -763.5t-61.5 -764t-369.5 -127v213z" />
<glyph unicode="*" horiz-adv-x="1281" d="M273 1058l46 130l255 -92v269h133v-269l257 92l44 -138l-254 -88l152 -216l-107 -81l-154 226l-167 -226l-108 81l158 217z" />
<glyph unicode="+" horiz-adv-x="1286" d="M135 576v213h391v401h229v-401h396v-213h-396v-401h-229v401h-391z" />
<glyph unicode="," horiz-adv-x="459" d="M92 -122q110 0 110 92l-1 30h-90v246h229v-238q0 -239 -206 -239q-11 0 -42 2v107z" />
<glyph unicode="-" horiz-adv-x="457" d="M0 419v218h457v-218h-457z" />
<glyph unicode="." horiz-adv-x="434" d="M103 0v246h229v-246h-229z" />
<glyph unicode="/" horiz-adv-x="1243" d="M-108 -410l1052 1775h172l-1052 -1775h-172z" />
<glyph unicode="0" d="M90 683q0 472 88 582.5t464 110.5t464 -110.5t88 -582.5q0 -473 -88 -583.5t-464 -110.5t-464 111t-88 583zM346 682l2 -166q0 -207 48 -256t249 -49q209 0 251 69t42 411q0 345 -40 404t-276 59q-179 0 -226.5 -51t-47.5 -242z" />
<glyph unicode="1" horiz-adv-x="1286" d="M137 954l441 411h327v-1365h-259v1139l-355 -352z" />
<glyph unicode="2" d="M117 0v278q0 216 77.5 287t368.5 123q241 43 285.5 78.5t44.5 183.5q0 142 -44.5 180t-211.5 38q-172 0 -217 -38.5t-45 -187.5v-58h-254v57q0 257 106 346t411 89q298 0 404.5 -90t106.5 -342q0 -238 -81 -318.5t-373 -134.5q-241 -44 -280 -74.5t-39 -174.5v-37h773 v-205h-1032z" />
<glyph unicode="3" d="M95 386l1 76h253q3 -45 3 -54q0 -141 47.5 -176t238.5 -35q175 0 221.5 38t46.5 182q0 110 -42.5 145t-176.5 35h-113h-45v201l44 -1q218 0 265.5 26t47.5 147q0 135 -42.5 166.5t-224.5 31.5q-165 0 -208 -34.5t-43 -168.5v-40h-250v51q0 239 101 319.5t399 80.5 q300 0 412 -76t112 -281q0 -283 -227 -318v-7q247 -27 247 -298q0 -241 -109 -324t-425 -83q-310 0 -421.5 83t-111.5 314z" />
<glyph unicode="4" d="M53 293v291l596 781h400v-872h157v-200h-157v-293h-259v293h-737zM265 493h525v676h-8z" />
<glyph unicode="5" d="M124 394h253q7 -132 50.5 -164.5t213.5 -32.5q189 0 230 43.5t41 244.5q0 157 -46 200.5t-213 43.5q-243 0 -267 -95h-234v731h957v-205h-717l-3 -329h5q76 106 312 106q269 0 365.5 -99t96.5 -373q0 -281 -108 -378.5t-418 -97.5q-306 0 -412 83t-106 322z" />
<glyph unicode="6" horiz-adv-x="1286" d="M109 626q0 520 84.5 635t468.5 115q280 0 386 -77t106 -281v-36h-257l1 31q0 96 -43 125.5t-182 29.5q-202 0 -252 -38.5t-50 -193.5v-235h5q67 132 335 132q263 0 359 -83.5t96 -312.5q0 -265 -103 -357t-400 -92q-366 0 -460 108.5t-94 529.5zM365 445q0 -167 46 -208 t232 -41q178 0 222.5 36.5t44.5 183.5q0 139 -43.5 174t-215.5 35q-183 0 -234.5 -32.5t-51.5 -147.5z" />
<glyph unicode="7" d="M96 1147v218h1014v-249l-550 -1116h-289l580 1147h-755z" />
<glyph unicode="8" horiz-adv-x="1286" d="M103 373q0 287 239 328v5q-131 32 -175.5 93.5t-44.5 211.5q0 217 103.5 291t405.5 74q313 0 417.5 -72.5t104.5 -290.5q0 -253 -221 -308v-5q238 -41 238 -323q0 -231 -108 -309.5t-427 -78.5q-315 0 -423.5 78t-108.5 306zM359 398q0 -138 45.5 -169.5t246.5 -31.5 q172 0 217.5 37t45.5 178q0 123 -48 155t-234 32q-184 0 -228.5 -32.5t-44.5 -168.5zM378 988q0 -129 44 -158t240 -29q156 0 195.5 33.5t39.5 166.5q0 111 -44.5 139t-220.5 28q-172 0 -213 -29t-41 -151z" />
<glyph unicode="9" horiz-adv-x="1286" d="M97 338v47h252q0 -130 42 -159.5t224 -29.5q197 0 239.5 41t42.5 232v199h-5q-65 -134 -314 -134q-280 0 -375.5 78.5t-95.5 308.5q0 269 100.5 362t392.5 93q379 0 468.5 -108t89.5 -566q0 -493 -85.5 -603.5t-466.5 -110.5q-294 0 -401.5 74t-107.5 276zM363 953 q0 -141 43.5 -176t218.5 -35q185 0 231 33.5t46 166.5q0 152 -48 189t-244 37q-161 0 -204 -37.5t-43 -177.5z" />
<glyph unicode=":" horiz-adv-x="434" d="M103 0v246h229v-246h-229zM103 710v246h229v-246h-229z" />
<glyph unicode=";" horiz-adv-x="430" d="M69 -122q110 0 110 92l-1 30h-90v246h229v-238q0 -239 -206 -239q-11 0 -42 2v107zM83 710v246h229v-246h-229z" />
<glyph unicode="&#x3c;" horiz-adv-x="887" d="M0 598v193l887 441v-227l-645 -311l645 -311v-226z" />
<glyph unicode="=" horiz-adv-x="1286" d="M135 383v205h1016v-205h-1016zM135 769v213h1016v-213h-1016z" />
<glyph unicode="&#x3e;" horiz-adv-x="887" d="M0 156v227l645 311l-645 312v225l887 -441v-193z" />
<glyph unicode="?" horiz-adv-x="1083" d="M100 953l1 50q0 221 95 297.5t371 76.5q244 0 333.5 -79t89.5 -293q0 -169 -44 -236.5t-195 -131.5q-147 -62 -147 -167v-32h-232q0 170 33 224.5t173 112.5l89 38q111 46 111 186q0 116 -41.5 149.5t-185.5 33.5q-135 0 -180 -35.5t-45 -141.5l1 -52h-227zM372 0v246 h229v-246h-229z" />
<glyph unicode="@" horiz-adv-x="1429" d="M95 644q0 414 115.5 524.5t547.5 110.5q374 0 474.5 -89.5t100.5 -422.5q0 -261 -51 -355.5t-192 -94.5q-193 0 -206 118h-5q-38 -122 -225 -122q-147 0 -201.5 72t-54.5 266q0 216 51.5 288t204.5 72q160 0 203 -98h5v94h164v-435l2 -35q4 -94 80 -94q102 0 102 320 q0 282 -62.5 336t-387.5 54q-379 0 -460.5 -71t-81.5 -400q0 -373 76 -455.5t419 -82.5q334 0 369 77l118 -55q-71 -148 -518 -148q-370 0 -478.5 116t-108.5 510zM555 681q0 -158 27 -200t130 -42t128 42.5t25 218.5q0 185 -158 185q-93 0 -122.5 -39.5t-29.5 -164.5z" />
<glyph unicode="A" horiz-adv-x="1300" d="M-2 0l454 1365h389l461 -1365h-269l-87 262h-589l-85 -262h-274zM418 453h468l-236 711z" />
<glyph unicode="B" horiz-adv-x="1299" d="M120 0v1365h671q236 0 321.5 -75.5t85.5 -284.5q0 -253 -201 -298v-5q234 -36 234 -325q0 -209 -90 -293t-314 -84h-707zM379 218h284l91 2q131 0 172.5 37t41.5 156q0 124 -43.5 156t-214.5 32h-331v-383zM379 792h317q154 0 196.5 34t42.5 157q0 164 -186 164h-370 v-355z" />
<glyph unicode="C" horiz-adv-x="1266" d="M69 826q0 338 126 444.5t527 106.5q292 0 390 -87.5t98 -347.5l1 -31h-260v35q0 134 -50.5 171.5t-230.5 37.5q-241 0 -289.5 -59t-48.5 -350q0 -392 43.5 -464t281.5 -72q193 0 250.5 40t57.5 176l-2 61h260v-47q0 -285 -104 -368.5t-460 -83.5q-404 0 -497 132t-93 706 z" />
<glyph unicode="D" horiz-adv-x="1375" d="M120 0v1365h671q286 0 400.5 -125t114.5 -438q0 -511 -92 -656.5t-415 -145.5h-679zM379 218h369q186 0 240.5 85.5t54.5 377.5q0 302 -49 384t-230 82h-385v-929z" />
<glyph unicode="E" horiz-adv-x="1106" d="M93 0v1365h934v-218h-675v-352h640v-191h-640v-386h681v-218h-940z" />
<glyph unicode="F" horiz-adv-x="1062" d="M120 0v1365h904v-218h-645v-368h612v-218h-612v-561h-259z" />
<glyph unicode="G" horiz-adv-x="1324" d="M69 567q0 448 46 566q57 144 173 194t394 50q364 0 470 -77.5t106 -343.5h-262q-7 134 -58.5 166.5t-258.5 32.5q-225 0 -285.5 -56t-60.5 -263l-1 -137l2 -175q0 -203 60 -258.5t278 -55.5q212 0 269.5 47t57.5 222l1 56h-343v191h601l4 -271q0 -296 -111.5 -381.5 t-497.5 -85.5q-354 0 -469 114t-115 465z" />
<glyph unicode="H" horiz-adv-x="1398" d="M120 0v1365h259v-557h640v557h259v-1365h-259v590h-640v-590h-259z" />
<glyph unicode="I" horiz-adv-x="501" d="M120 0v1365h259v-1365h-259z" />
<glyph unicode="J" horiz-adv-x="1058" d="M44 434l3 101h247q6 -76 6 -114q0 -36 3 -87q6 -124 197 -124q114 0 146.5 44.5t32.5 200.5v910h259v-942q0 -263 -87 -349t-354 -86q-284 0 -368.5 83t-84.5 363z" />
<glyph unicode="K" horiz-adv-x="1320" d="M120 0v1365h259v-556h122l454 556h322l-551 -663l609 -702h-332l-500 591h-124v-591h-259z" />
<glyph unicode="L" horiz-adv-x="1030" d="M120 0v1365h259v-1133h640v-232h-899z" />
<glyph unicode="M" horiz-adv-x="1836" d="M120 0v1365h422l244 -632q25 -66 66 -189l30 -95l31 -94h9l29 94l30 94q37 119 64 188l240 634h431v-1365h-259v744q0 89 5 202l5 102l5 101h-8l-31 -95l-30 -95q-42 -128 -65 -189l-300 -770h-236l-303 764q-25 63 -66 189l-31 95l-31 94h-8l5 -99l5 -100q6 -116 6 -199 v-744h-259z" />
<glyph unicode="N" horiz-adv-x="1507" d="M120 0v1365h439l355 -692q47 -92 109 -223l52 -111l52 -112h9l-3 88l-3 88l-2 176v786h259v-1365h-439l-390 749q-29 56 -91 196l-44 98l-43 98h-10l4 -90l3 -89l2 -179v-783h-259z" />
<glyph unicode="O" horiz-adv-x="1328" d="M55 639q0 488 107 613t525 125q372 0 479 -123.5t107 -552.5q0 -469 -107.5 -591t-520.5 -122q-372 0 -481 120.5t-109 530.5zM318 624q0 -294 51.5 -354t303.5 -60q241 0 289 67.5t48 409.5q0 343 -45.5 405.5t-297.5 62.5q-261 0 -305 -67t-44 -464z" />
<glyph unicode="P" horiz-adv-x="1253" d="M120 0v1365h550h68q277 0 373.5 -96.5t96.5 -372.5q0 -274 -92 -364t-372 -90l-60 -1h-305v-441h-259zM379 659h295q176 0 223.5 40.5t47.5 191.5q0 173 -39.5 214.5t-205.5 41.5h-321v-488z" />
<glyph unicode="Q" horiz-adv-x="1370" d="M55 638q0 483 105.5 611t503.5 128q392 0 500.5 -120.5t108.5 -555.5q0 -309 -27 -420l143 -98l-107 -156l-130 90q-127 -129 -484 -129q-391 0 -502 117.5t-111 532.5zM318 624q0 -300 53.5 -357t334.5 -57q143 0 224 61l-318 215l108 156l282 -191q8 74 8 99v138v169 q0 191 -62 244.5t-281 53.5q-261 0 -305 -67t-44 -464z" />
<glyph unicode="R" horiz-adv-x="1320" d="M120 0v1365h673q251 0 346 -87t95 -315q0 -207 -47.5 -283t-194.5 -105v-9q227 -14 227 -265v-301h-259v249q0 211 -208 211h-373v-460h-259zM379 678h372q133 0 176.5 47.5t43.5 190.5q0 146 -37.5 188.5t-164.5 42.5h-390v-469z" />
<glyph unicode="S" horiz-adv-x="1226" d="M64 432h252l1 -29q0 -143 50 -175t273 -32q174 0 222 37t48 171q0 99 -36.5 131.5t-157.5 39.5l-143 9q-324 19 -414 90t-90 305q0 239 108.5 318.5t433.5 79.5q308 0 415 -73t107 -285v-52h-253q-2 19 -2 28q-9 115 -51 144.5t-198 29.5q-184 0 -240.5 -34t-56.5 -143 q0 -129 46 -155t304 -40q305 -17 394.5 -87t89.5 -291q0 -272 -105 -351.5t-463 -79.5q-322 0 -427.5 78t-105.5 316z" />
<glyph unicode="T" horiz-adv-x="1083" d="M11 1133v232h1061v-232h-408v-1133h-259v1133h-394z" />
<glyph unicode="U" horiz-adv-x="1376" d="M121 442v923h259v-923q0 -151 54 -191.5t254 -40.5q205 0 257.5 41t52.5 201v913h259v-908q0 -285 -109.5 -377t-447.5 -92q-357 0 -468 87t-111 367z" />
<glyph unicode="V" horiz-adv-x="1261" d="M-6 1365h269l256 -773q36 -111 107 -372h7l26 93q48 174 82 278l253 774h274l-440 -1365h-398z" />
<glyph unicode="W" horiz-adv-x="2040" d="M0 1365h264l197 -749q18 -72 45 -199l21 -100l20 -100h9q16 66 24 100l24 99q19 78 53 199l210 750h304l205 -750q26 -96 51 -199l23 -99l24 -100h8l22 100l21 100q26 121 47 200l202 748h265l-365 -1365h-383l-190 700q-26 95 -61 254l-19 84h-9l-20 -85l-19 -84 q-21 -85 -45 -170l-195 -699h-379z" />
<glyph unicode="X" horiz-adv-x="1290" d="M-6 0l448 704l-416 661h309l182 -304q43 -72 81 -142l25 -48l25 -48h4q17 32 25 48l25 47q32 62 80 142l182 305h306l-410 -661l437 -704h-304l-196 328q-45 76 -86 154l-28 54l-29 53h-4l-29 -54q-52 -98 -118 -207l-197 -328h-312z" />
<glyph unicode="Y" horiz-adv-x="1245" d="M-6 1365h300l206 -360q17 -30 58 -111l29 -55l28 -55h7l29 55l29 55q37 74 59 111l208 360h304l-506 -844v-521h-259v521z" />
<glyph unicode="Z" horiz-adv-x="1181" d="M45 0v221l748 918v8h-715v218h1049v-217l-754 -922v-8h763v-218h-1091z" />
<glyph unicode="[" horiz-adv-x="634" d="M111 -410v1775h420v-191h-181v-1393h181v-191h-420z" />
<glyph unicode="\" horiz-adv-x="1243" d="M-108 1365h172l1052 -1775h-172z" />
<glyph unicode="]" horiz-adv-x="627" d="M103 -219h174v1393h-174v191h413v-1775h-413v191z" />
<glyph unicode="^" horiz-adv-x="978" d="M0 705l339 667h300l339 -667h-241l-248 485l-249 -485h-240z" />
<glyph unicode="_" horiz-adv-x="1024" d="M0 -108h1024v-205h-1024v205z" />
<glyph unicode="`" horiz-adv-x="1024" d="M239 1214l83 154l325 -213l-50 -95z" />
<glyph unicode="a" horiz-adv-x="1069" d="M78 284q0 298 355 298q237 0 288 -109h4v155q0 112 -39 148.5t-160 36.5q-175 0 -175 -134h-234q0 172 80 230t317 58q258 0 349 -71t91 -271v-625h-229l11 131l-6 1q-66 -143 -305 -143q-347 0 -347 295zM310 294q0 -93 40 -122t168 -29q209 0 209 141q0 144 -223 144 q-194 0 -194 -134z" />
<glyph unicode="b" horiz-adv-x="1083" d="M113 0v1365h229v-546l5 -2q59 151 299 151q206 0 282.5 -100.5t76.5 -372.5q0 -297 -77.5 -401.5t-297.5 -104.5q-223 0 -293 162h-5l10 -151h-229zM345 510q0 -217 38 -278.5t172 -61.5q140 0 179 56.5t39 258.5q0 188 -38.5 245t-166.5 57q-223 0 -223 -277z" />
<glyph unicode="c" horiz-adv-x="1005" d="M78 479q0 288 89 388t346 100q248 0 336 -72.5t88 -275.5h-227q0 167 -193 167q-137 0 -172 -53t-35 -260q0 -200 38.5 -251.5t188.5 -51.5q118 0 151.5 35.5t33.5 159.5h228v-33l-14 -145q-42 -198 -410 -198q-270 0 -359 97.5t-89 392.5z" />
<glyph unicode="d" horiz-adv-x="1076" d="M79 512q0 256 79 355.5t281 99.5q234 0 292 -148l4 1v545h229v-1365h-223l8 154l-4 1q-67 -167 -292 -167q-227 0 -300.5 103.5t-73.5 420.5zM311 497q0 -208 38 -268t170 -60q138 0 176.5 59t38.5 272q0 176 -42.5 231t-176.5 55q-128 0 -166 -54.5t-38 -234.5z" />
<glyph unicode="e" horiz-adv-x="1037" d="M78 497q0 279 92 375t359 96q256 0 343 -93.5t87 -367.5v-70h-647q-2 -32 -2 -42q0 -141 43.5 -188t173.5 -47q126 0 164 27.5t38 118.5h230v-37q0 -280 -420 -280q-285 0 -373 97t-88 411zM314 577h417l-1 38q0 114 -39.5 148t-171.5 34q-128 0 -166.5 -41t-38.5 -179z " />
<glyph unicode="f" horiz-adv-x="640" d="M25 782v174h135v102q0 182 78.5 251.5t284.5 69.5q35 0 97 -3v-179q-47 11 -80 11q-151 0 -151 -150v-102h238v-174h-238v-782h-229v782h-135z" />
<glyph unicode="g" horiz-adv-x="1080" d="M78 491q0 270 79.5 373t288.5 103q228 0 299 -169h5l-11 158h229v-974q0 -234 -94.5 -321t-348.5 -87q-246 0 -329 66t-83 261h222q0 -93 35 -119.5t156 -26.5q213 0 213 176v215l-5 1q-61 -153 -280 -153q-217 0 -296.5 105t-79.5 392zM310 489q0 -202 37.5 -258 t172.5 -56t175 57.5t40 254.5q0 189 -40 244t-178 55q-132 0 -169.5 -53.5t-37.5 -243.5z" />
<glyph unicode="h" horiz-adv-x="1088" d="M113 0v1365h229v-567l5 -1q64 170 294 170q335 0 335 -317v-650h-229v587v31q0 168 -171 168q-234 0 -234 -243v-543h-229z" />
<glyph unicode="i" horiz-adv-x="454" d="M113 0v956h229v-956h-229zM113 1174v191h229v-191h-229z" />
<glyph unicode="j" horiz-adv-x="453" d="M4 -157h23q82 0 82 135v978h229v-997q0 -287 -255 -287q-36 0 -79 8v163zM110 1174v191h229v-191h-229z" />
<glyph unicode="k" horiz-adv-x="984" d="M113 0v1365h229v-781h59l258 372h266l-333 -450l401 -506h-284l-311 424h-56v-424h-229z" />
<glyph unicode="l" horiz-adv-x="454" d="M113 0v1365h229v-1365h-229z" />
<glyph unicode="m" horiz-adv-x="1673" d="M113 0v956h229l-6 -147l5 -1q70 159 292 159q259 0 288 -177h4q67 177 295 177q332 0 332 -334v-633h-229v583q0 203 -167 203q-209 0 -209 -227v-559h-229v592q0 119 -31.5 156.5t-133.5 37.5q-211 0 -211 -232v-554h-229z" />
<glyph unicode="n" horiz-adv-x="1086" d="M113 0v956h227l-9 -161l5 -1q67 173 300 173q339 0 339 -316v-651h-229v576v36l-5 67q-16 107 -168 107q-231 0 -231 -219v-567h-229z" />
<glyph unicode="o" horiz-adv-x="1060" d="M78 486q0 301 85 391t370 90q277 0 363 -88.5t86 -373.5q0 -318 -84 -417t-354 -99q-293 0 -379.5 92t-86.5 405zM310 494q0 -216 37 -270t185 -54q143 0 180.5 57t37.5 274q0 183 -39 234t-180 51q-143 0 -182 -51.5t-39 -240.5z" />
<glyph unicode="p" horiz-adv-x="1095" d="M113 -410v1366h233l-9 -142l5 -1q83 155 309 155q209 0 287.5 -103.5t78.5 -377.5q0 -286 -78 -392t-289 -106q-225 0 -294 150h-4v-549h-239zM353 478q0 -186 43 -247t175 -61q134 0 174 58t40 249q0 196 -40.5 253t-180.5 57q-131 0 -171 -59t-40 -250z" />
<glyph unicode="q" horiz-adv-x="1081" d="M78 495q0 271 78.5 371.5t289.5 100.5q217 0 291 -154l6 2l-3 141h229v-1366h-229v550l-4 1q-63 -153 -294 -153q-211 0 -287.5 106.5t-76.5 400.5zM310 496q0 -213 37.5 -270t177.5 -57q127 0 169.5 59t42.5 235q0 204 -40.5 263.5t-181.5 59.5q-125 0 -165 -56.5 t-40 -233.5z" />
<glyph unicode="r" horiz-adv-x="863" d="M119 0v956h229l-14 -134l5 -1q82 150 258 150q252 0 252 -318v-67h-216q4 39 4 51q0 153 -119 153q-170 0 -170 -227v-563h-229z" />
<glyph unicode="s" horiz-adv-x="1013" d="M69 277v24h238q-5 -20 -6 -32q-1 -8 -1 -15q0 -112 197 -112q217 0 217 126q0 121 -136 121q-307 0 -404.5 58t-97.5 241q0 164 89 222t342 58q239 0 321.5 -56t82.5 -219h-224l-3 18q-7 69 -39.5 86t-157.5 17q-179 0 -179 -116q0 -79 31.5 -94t213.5 -24 q245 -12 319 -65t74 -217q0 -175 -98.5 -242.5t-353.5 -67.5q-245 0 -335 61t-90 228z" />
<glyph unicode="t" horiz-adv-x="782" d="M9 782v174h124v214h229v-214h368v-174h-368v-480q0 -133 101 -133q111 0 111 161v38h195v-48q0 -66 -4 -113q-19 -219 -326 -219q-306 0 -306 281v513h-124z" />
<glyph unicode="u" horiz-adv-x="1081" d="M109 314v642h229v-587q0 -122 34 -160.5t141 -38.5q220 0 220 264v522h229v-956h-229l13 164l-4 1q-67 -176 -308 -176q-325 0 -325 325z" />
<glyph unicode="v" horiz-adv-x="900" d="M-10 956h243l126 -441q26 -92 48 -178l23 -89l23 -89h5l21 89l21 88q24 100 45 178l118 442h247l-274 -956h-358z" />
<glyph unicode="w" horiz-adv-x="1455" d="M4 956h231l92 -443q17 -83 34 -178l16 -89l17 -89h4l20 89l19 89q15 67 41 177l104 444h292l104 -444q29 -125 41 -177l19 -89l19 -89h5l17 89l16 89q17 92 35 178l93 443h229l-214 -956h-338l-96 428q-25 111 -37 169l-17 84l-17 84h-7l-17 -84l-17 -85 q-11 -56 -36 -168l-96 -428h-343z" />
<glyph unicode="x" horiz-adv-x="919" d="M-8 0l313 503l-276 453h273l158 -303l162 303h273l-278 -450l309 -506h-274l-192 347l-187 -347h-281z" />
<glyph unicode="y" horiz-adv-x="890" d="M-10 956h246l120 -405l60 -203q5 -20 28 -102l29 -101h5l21 101q16 78 21 102l47 203l92 405h241l-251 -1016q-53 -216 -131.5 -290.5t-251.5 -74.5q-39 0 -81 4v169q30 -2 50 -2q146 0 185 254h-117z" />
<glyph unicode="z" horiz-adv-x="868" d="M42 0v201l507 581h-467v174h745v-197l-512 -585h512v-174h-785z" />
<glyph unicode="{" horiz-adv-x="783" d="M133 388v179q114 28 114 175v323q0 300 248 300h155v-177h-22q-169 0 -169 -176v-289q0 -184 -123 -246q123 -61 123 -245v-289q0 -176 174 -176h17v-177h-155q-248 0 -248 300v323q0 146 -114 175z" />
<glyph unicode="|" horiz-adv-x="229" d="M0 -341v1706h229v-1706h-229z" />
<glyph unicode="}" horiz-adv-x="784" d="M133 -233q117 0 154 34t37 142v289q0 184 123 245q-123 62 -123 246v289q0 176 -165 176h-25v177h154q248 0 248 -300v-323q0 -147 115 -175v-179q-115 -29 -115 -175v-323q0 -300 -248 -300h-155v177z" />
<glyph unicode="~" horiz-adv-x="993" d="M0 1245q10 21 15 32q109 237 286 237q71 0 218 -57q134 -53 186 -53q88 0 156 114l132 -77q-125 -259 -313 -259q-64 0 -200 52l-101 38q-52 20 -98 20q-84 0 -153 -131z" />
<glyph unicode="&#xa1;" horiz-adv-x="563" d="M164 -410l19 910h220l16 -910h-255zM178 710v246h229v-246h-229z" />
<glyph unicode="&#xa2;" d="M194 652q0 258 83.5 365t283.5 107v143h150v-141q346 0 346 -349h-222q0 148 -124 164v-609q132 27 132 148l2 43h221v-38q0 -342 -355 -342v-164h-150v164q-208 0 -287.5 110.5t-79.5 398.5zM426 656q0 -293 107 -316q10 -2 28 -7v606q-135 -28 -135 -283z" />
<glyph unicode="&#xa3;" horiz-adv-x="1286" d="M90 522v191h168v200v58l14 161q48 248 467 248q287 0 387 -77.5t100 -301.5l-1 -67h-259l-1 29q0 123 -38.5 159t-170.5 36q-150 0 -194.5 -41.5t-44.5 -179.5v-224h370v-191h-370v-45l1 -72l-14 -97q-17 -49 -84 -91v-7l817 5v-215h-1109v210q130 16 130 224v88h-168z " />
<glyph unicode="&#xa4;" horiz-adv-x="1418" d="M96 1197l127 127l205 -205q151 91 287 91q124 0 271 -89l205 202l125 -126l-200 -200q93 -144 93 -283q0 -128 -88 -278l201 -200l-125 -127l-201 200q-134 -93 -279 -93q-139 0 -293 93l-200 -199l-126 125l199 201q-88 133 -88 279q0 131 92 280zM421 713 q0 -119 84.5 -204t203.5 -85t203.5 84.5t84.5 204.5t-84.5 204.5t-203.5 84.5t-203.5 -85t-84.5 -204z" />
<glyph unicode="&#xa5;" d="M41 1365h294l295 -579h8l303 579h303l-228 -387h180v-191h-288l-100 -166h388v-191h-435v-430h-259v430h-414v191h370l-96 166h-274v191h171z" />
<glyph unicode="&#xa6;" horiz-adv-x="229" d="M0 314h229v-655h-229v655zM0 665v700h229v-700h-229z" />
<glyph unicode="&#xa7;" horiz-adv-x="1283" d="M101 524q0 210 143 251q-100 69 -100 257q0 206 101 278t390 72q307 0 403.5 -67.5t96.5 -282.5v-50h-241l-1 45q0 92 -49 119.5t-214 27.5q-144 0 -187 -25.5t-43 -110.5q0 -79 25 -105t126 -49l345 -82q178 -42 230.5 -98t52.5 -203q0 -219 -121 -275q124 -56 124 -254 q0 -234 -106 -310t-432 -76q-317 0 -418.5 75.5t-101.5 310.5v35h235q0 -141 48 -177t238 -36q182 0 231.5 29.5t49.5 137.5q0 123 -157 157l-447 98q-137 30 -179 88.5t-42 219.5zM333 541q0 -121 129 -151l319 -74q56 -13 83 -13q103 0 103 168q0 111 -158 150l-280 69 q-64 16 -90 16q-106 0 -106 -165z" />
<glyph unicode="&#xa8;" horiz-adv-x="1024" d="M235 1121v160h177v-160h-177zM612 1121v160h177v-160h-177z" />
<glyph unicode="&#xa9;" horiz-adv-x="1527" d="M68 683q0 288 204 492t493 204q286 0 489.5 -204t203.5 -492t-203.5 -492.5t-489.5 -204.5q-289 0 -493 204t-204 493zM174 683q0 -249 173 -425t417 -176t416 176t172 425q0 248 -172 424t-416 176t-417 -175.5t-173 -424.5zM421 771q0 191 75.5 252.5t309.5 61.5 q173 0 232 -50.5t59 -199.5v-24h-164v26q0 108 -153 108q-133 0 -159 -32t-26 -195q0 -207 24 -245.5t154 -38.5q168 0 168 112l-1 41h164v-33q0 -164 -62 -212t-272 -48q-238 0 -293.5 76t-55.5 401z" />
<glyph unicode="&#xaa;" horiz-adv-x="857" d="M118 633l2 96h597v-96h-599zM149 985q0 174 220 174q121 0 168 -47v66q0 100 -113 100q-98 0 -98 -78h-154q0 105 48.5 139.5t196.5 34.5q270 0 270 -198v-357h-151l5 57q-55 -63 -177 -63q-215 0 -215 172zM306 991q0 -82 116 -82t116 76q0 78 -124 78q-108 0 -108 -72z " />
<glyph unicode="&#xab;" horiz-adv-x="969" d="M93 508l239 482l155 -88l-195 -394l207 -385l-146 -93zM471 514l239 482l155 -88l-195 -394l207 -385l-146 -93z" />
<glyph unicode="&#xac;" horiz-adv-x="887" d="M0 333v213h887v-546h-229v333h-658z" />
<glyph unicode="&#xad;" horiz-adv-x="457" d="M0 419v218h457v-218h-457z" />
<glyph unicode="&#xae;" horiz-adv-x="1527" d="M68 683q0 288 204 492t493 204q286 0 489.5 -204t203.5 -492t-203.5 -492.5t-489.5 -204.5q-289 0 -493 204t-204 493zM174 683q0 -249 173 -425t417 -176t416 176t172 425q0 248 -172 424t-416 176t-417 -175.5t-173 -424.5zM433 300v779h397q263 0 263 -242 q0 -176 -120 -211q111 -27 111 -153v-173h-164v144q0 110 -114 110h-209v-254h-164zM597 694h209q130 0 130 124q0 121 -120 121h-219v-245z" />
<glyph unicode="&#xb0;" horiz-adv-x="770" d="M91 1084q0 121 86 206t209 85q122 0 208 -85t86 -206q0 -120 -86.5 -205.5t-207.5 -85.5q-122 0 -208.5 85.5t-86.5 205.5zM214 1084q0 -165 172 -165q171 0 171 165t-171 165q-172 0 -172 -165z" />
<glyph unicode="&#xb1;" d="M132 77v218h1022v-218h-1022zM132 743v218h392v331h239v-331h391v-218h-391v-330h-239v330h-392z" />
<glyph unicode="&#xb2;" horiz-adv-x="856" d="M85 545v176q0 129 51 171.5t240 73.5q155 24 182 43t27 102q0 80 -27 100.5t-133 20.5q-109 0 -136.5 -20.5t-27.5 -101.5v-42h-174l1 40q0 156 69 210t267 54q194 0 264.5 -55t70.5 -206q0 -142 -54 -191.5t-244 -80.5q-151 -25 -175 -42t-24 -97v-15h497v-140h-674z " />
<glyph unicode="&#xb3;" horiz-adv-x="857" d="M71 780l1 52h175q-1 -22 -2 -38q-4 -75 28 -95t152 -20q111 0 140 20t29 95q0 104 -135 104h-74h-36v133l35 -1q140 0 168.5 13.5t28.5 80.5q0 75 -25.5 91.5t-140.5 16.5q-105 0 -130.5 -18t-25.5 -92l1 -30h-174v37q0 144 66.5 193.5t260.5 49.5q342 0 342 -217 q0 -155 -119 -190q132 -26 132 -179q0 -145 -72 -196t-277 -51q-201 0 -274.5 51t-73.5 190z" />
<glyph unicode="&#xb4;" horiz-adv-x="1024" d="M378 1155l325 213l83 -154l-358 -154z" />
<glyph unicode="&#xb5;" horiz-adv-x="893" d="M0 -351v1334h229v-531q0 -303 220 -303q215 0 215 313v521h229v-983h-229v134q-76 -156 -218 -156q-136 0 -217 133v-462h-229z" />
<glyph unicode="&#xb6;" d="M66 902q0 273 96 368t371 95h68h540v-1775h-177v1584h-152v-1584h-177v854h-47l-54 1q-279 0 -373.5 92.5t-94.5 364.5z" />
<glyph unicode="&#xb8;" horiz-adv-x="1024" d="M377 -277l182 176l88 -106l-206 -140z" />
<glyph unicode="&#xb9;" horiz-adv-x="855" d="M94 1116l290 249h216v-819h-177v663l-220 -201z" />
<glyph unicode="&#xba;" horiz-adv-x="857" d="M129 633l2 96h597v-96h-599zM150 1109q0 162 54 213.5t225 51.5q170 0 223.5 -51.5t53.5 -213.5q0 -181 -52.5 -238.5t-217.5 -57.5q-181 0 -233.5 54t-52.5 242zM307 1094q0 -109 20.5 -137t101.5 -28q78 0 99 29t21 139q0 107 -20 134t-100 27q-81 0 -101.5 -27.5 t-20.5 -136.5z" />
<glyph unicode="&#xbb;" horiz-adv-x="969" d="M93 129l206 385l-194 394l154 88l240 -482l-260 -478zM471 123l206 385l-194 394l154 88l240 -482l-260 -478z" />
<glyph unicode="&#xbc;" horiz-adv-x="2050" d="M94 1116l290 249h216v-819h-177v663l-220 -201zM516 0l860 1365h157l-862 -1365h-155zM1237 173v180l387 466h264v-515h101v-131h-101v-173h-177v173h-474zM1395 304h316v380z" />
<glyph unicode="&#xbd;" horiz-adv-x="2050" d="M95 1116l290 249h216v-819h-177v663l-220 -201zM517 0l860 1365h157l-862 -1365h-155zM1278 0v176q0 128 51 170.5t240 72.5q154 25 181.5 44t27.5 102q0 80 -27 100.5t-133 20.5q-109 0 -136.5 -20.5t-27.5 -102.5v-42h-174l1 40q0 156 69 210.5t267 54.5 q194 0 264.5 -55t70.5 -207q0 -142 -54 -191t-244 -80q-151 -25 -175 -41.5t-24 -96.5v-15h497v-140h-674z" />
<glyph unicode="&#xbe;" horiz-adv-x="2050" d="M71 780l1 52h175q-1 -22 -2 -38q-4 -75 28 -95t152 -20q111 0 140 20t29 95q0 104 -135 104h-74h-36v133l35 -1q140 0 168.5 13.5t28.5 80.5q0 75 -25.5 91.5t-140.5 16.5q-105 0 -130.5 -18t-25.5 -92l1 -30h-174v37q0 144 66.5 193.5t260.5 49.5q342 0 342 -217 q0 -155 -119 -190q132 -26 132 -179q0 -145 -72 -196t-277 -51q-201 0 -274.5 51t-73.5 190zM557 0l860 1365h158l-862 -1365h-156zM1238 173v180l387 466h264v-515h100v-131h-100v-173h-177v173h-474zM1396 304h316v380z" />
<glyph unicode="&#xbf;" horiz-adv-x="1083" d="M93 -51q0 171 44 238.5t195 131.5q147 62 147 167v32h232q0 -170 -33.5 -224.5t-172.5 -113.5l-89 -37q-111 -46 -111 -186q0 -117 41.5 -150.5t185.5 -33.5q135 0 180 35.5t45 142.5l-1 52h227l-1 -50q0 -222 -95 -298.5t-370 -76.5q-244 0 -334 79t-90 292zM485 710 v246h229v-246h-229z" />
<glyph unicode="&#xc0;" horiz-adv-x="1300" d="M-2 0l454 1365h389l461 -1365h-269l-87 262h-589l-85 -262h-274zM376 1564l46 166l364 -128l-26 -103zM418 453h468l-236 711z" />
<glyph unicode="&#xc1;" horiz-adv-x="1300" d="M-2 0l454 1365h389l461 -1365h-269l-87 262h-589l-85 -262h-274zM418 453h468l-236 711zM510 1602l364 128l46 -166l-384 -65z" />
<glyph unicode="&#xc2;" horiz-adv-x="1300" d="M-2 0l454 1365h389l461 -1365h-269l-87 262h-589l-85 -262h-274zM327 1563l324 190l324 -190l-45 -91l-279 114l-280 -114zM418 453h468l-236 711z" />
<glyph unicode="&#xc3;" horiz-adv-x="1300" d="M-2 0l454 1365h389l461 -1365h-269l-87 262h-589l-85 -262h-274zM297 1572q93 155 207 155q55 0 149 -50q98 -52 134 -52q55 0 102 82l114 -64q-90 -158 -211 -158q-61 0 -154 52q-90 50 -130 50q-52 0 -94 -78zM418 453h468l-236 711z" />
<glyph unicode="&#xc4;" horiz-adv-x="1300" d="M-2 0l454 1365h389l461 -1365h-269l-87 262h-589l-85 -262h-274zM374 1529v160h177v-160h-177zM418 453h468l-236 711zM749 1529v160h177v-160h-177z" />
<glyph unicode="&#xc5;" horiz-adv-x="1300" d="M-2 0l454 1365h389l461 -1365h-269l-87 262h-589l-85 -262h-274zM418 453h468l-236 711zM483 1621q0 168 167 168q168 0 168 -168q0 -167 -168 -167q-167 0 -167 167zM565 1621q0 -85 85 -85q86 0 86 85q0 86 -86 86q-85 0 -85 -86z" />
<glyph unicode="&#xc6;" horiz-adv-x="1956" d="M-5 0l644 1365h1244v-218h-666v-354h626v-191h-626v-384h666v-218h-925v262h-551l-123 -262h-289zM492 453h466v694h-139z" />
<glyph unicode="&#xc7;" horiz-adv-x="1266" d="M69 826q0 338 126 444.5t527 106.5q292 0 390 -87.5t98 -347.5l1 -31h-260v35q0 134 -50.5 171.5t-230.5 37.5q-241 0 -289.5 -59t-48.5 -350q0 -392 43.5 -464t281.5 -72q193 0 250.5 40t57.5 176l-2 61h260v-47q0 -285 -104 -368.5t-460 -83.5q-404 0 -497 132t-93 706 zM495 -304l202 202l101 -116l-230 -164z" />
<glyph unicode="&#xc8;" horiz-adv-x="1106" d="M93 0v1365h934v-218h-675v-352h640v-191h-640v-386h681v-218h-940zM278 1564l47 166l363 -128l-26 -103z" />
<glyph unicode="&#xc9;" horiz-adv-x="1106" d="M93 0v1365h934v-218h-675v-352h640v-191h-640v-386h681v-218h-940zM413 1602l363 128l47 -166l-384 -65z" />
<glyph unicode="&#xca;" horiz-adv-x="1106" d="M93 0v1365h934v-218h-675v-352h640v-191h-640v-386h681v-218h-940zM229 1563l324 190l323 -190l-44 -91l-279 114l-281 -114z" />
<glyph unicode="&#xcb;" horiz-adv-x="1106" d="M93 0v1365h934v-218h-675v-352h640v-191h-640v-386h681v-218h-940zM276 1529v160h177v-160h-177zM652 1529v160h177v-160h-177z" />
<glyph unicode="&#xcc;" horiz-adv-x="504" d="M-23 1564l47 166l363 -128l-26 -103zM120 0v1365h259v-1365h-259z" />
<glyph unicode="&#xcd;" horiz-adv-x="504" d="M112 1602l364 128l46 -166l-384 -65zM120 0v1365h259v-1365h-259z" />
<glyph unicode="&#xce;" horiz-adv-x="504" d="M-72 1563l324 190l323 -190l-44 -91l-279 114l-281 -114zM120 0v1365h259v-1365h-259z" />
<glyph unicode="&#xcf;" horiz-adv-x="503" d="M40 1529v160h177v-160h-177zM120 0v1365h259v-1365h-259zM286 1529v160h177v-160h-177z" />
<glyph unicode="&#xd0;" horiz-adv-x="1378" d="M-8 616v160h128v589h673q287 0 401.5 -125.5t114.5 -439.5q0 -510 -92 -655t-415 -145h-682v616h-128zM379 218h372q186 0 240.5 85t54.5 375q0 304 -49 386.5t-230 82.5h-388v-371h373v-160h-373v-398z" />
<glyph unicode="&#xd1;" horiz-adv-x="1507" d="M120 0v1365h439l355 -692q47 -92 109 -223l52 -111l52 -112h9l-3 88l-3 88l-2 176v786h259v-1365h-439l-390 749q-29 56 -91 196l-44 98l-43 98h-10l4 -90l3 -89l2 -179v-783h-259zM400 1572q93 155 207 155q55 0 148 -50q99 -52 135 -52q55 0 102 82l114 -64 q-90 -158 -212 -158q-61 0 -154 52q-90 50 -129 50q-52 0 -95 -78z" />
<glyph unicode="&#xd2;" horiz-adv-x="1328" d="M55 639q0 488 107 613t525 125q372 0 479 -123.5t107 -552.5q0 -469 -107.5 -591t-520.5 -122q-372 0 -481 120.5t-109 530.5zM318 624q0 -294 51.5 -354t303.5 -60q241 0 289 67.5t48 409.5q0 343 -45.5 405.5t-297.5 62.5q-261 0 -305 -67t-44 -464zM390 1564l46 166 l364 -128l-26 -103z" />
<glyph unicode="&#xd3;" horiz-adv-x="1328" d="M55 639q0 488 107 613t525 125q372 0 479 -123.5t107 -552.5q0 -469 -107.5 -591t-520.5 -122q-372 0 -481 120.5t-109 530.5zM318 624q0 -294 51.5 -354t303.5 -60q241 0 289 67.5t48 409.5q0 343 -45.5 405.5t-297.5 62.5q-261 0 -305 -67t-44 -464zM524 1602l363 128 l47 -166l-384 -65z" />
<glyph unicode="&#xd4;" horiz-adv-x="1328" d="M55 639q0 488 107 613t525 125q372 0 479 -123.5t107 -552.5q0 -469 -107.5 -591t-520.5 -122q-372 0 -481 120.5t-109 530.5zM318 624q0 -294 51.5 -354t303.5 -60q241 0 289 67.5t48 409.5q0 343 -45.5 405.5t-297.5 62.5q-261 0 -305 -67t-44 -464zM340 1563l323 190 l324 -190l-44 -91l-280 114l-280 -114z" />
<glyph unicode="&#xd5;" horiz-adv-x="1328" d="M55 639q0 488 107 613t525 125q372 0 479 -123.5t107 -552.5q0 -469 -107.5 -591t-520.5 -122q-372 0 -481 120.5t-109 530.5zM311 1572q93 155 208 155q54 0 148 -50q99 -52 134 -52q56 0 102 82l114 -64q-90 -158 -211 -158q-61 0 -154 52q-90 50 -130 50 q-52 0 -94 -78zM318 624q0 -294 51.5 -354t303.5 -60q241 0 289 67.5t48 409.5q0 343 -45.5 405.5t-297.5 62.5q-261 0 -305 -67t-44 -464z" />
<glyph unicode="&#xd6;" horiz-adv-x="1328" d="M55 639q0 488 107 613t525 125q372 0 479 -123.5t107 -552.5q0 -469 -107.5 -591t-520.5 -122q-372 0 -481 120.5t-109 530.5zM318 624q0 -294 51.5 -354t303.5 -60q241 0 289 67.5t48 409.5q0 343 -45.5 405.5t-297.5 62.5q-261 0 -305 -67t-44 -464zM388 1529v160h177 v-160h-177zM764 1529v160h177v-160h-177z" />
<glyph unicode="&#xd7;" d="M151 350l333 333l-333 333l158 158l333 -333l333 333l158 -158l-333 -333l333 -333l-158 -159l-333 333l-333 -333z" />
<glyph unicode="&#xd8;" horiz-adv-x="1344" d="M5 -16v206l87 77q-30 110 -30 367q0 492 107.5 617.5t528.5 125.5q359 0 477 -136l164 145v-205l-89 -80q31 -113 31 -405q0 -456 -107 -582t-496 -126t-512 140zM325 685q0 -128 9 -207l642 589q-54 88 -278 88q-260 0 -316.5 -71.5t-56.5 -398.5zM367 302 q55 -92 268 -92q239 0 310.5 57t71.5 247l1 207l-4 122q-1 16 -5 49z" />
<glyph unicode="&#xd9;" horiz-adv-x="1376" d="M121 442v923h259v-923q0 -151 54 -191.5t254 -40.5q205 0 257.5 41t52.5 201v913h259v-908q0 -285 -109.5 -377t-447.5 -92q-357 0 -468 87t-111 367zM414 1564l47 166l363 -128l-26 -103z" />
<glyph unicode="&#xda;" horiz-adv-x="1376" d="M121 442v923h259v-923q0 -151 54 -191.5t254 -40.5q205 0 257.5 41t52.5 201v913h259v-908q0 -285 -109.5 -377t-447.5 -92q-357 0 -468 87t-111 367zM548 1602l363 128l47 -166l-384 -65z" />
<glyph unicode="&#xdb;" horiz-adv-x="1376" d="M121 442v923h259v-923q0 -151 54 -191.5t254 -40.5q205 0 257.5 41t52.5 201v913h259v-908q0 -285 -109.5 -377t-447.5 -92q-357 0 -468 87t-111 367zM364 1563l323 190l324 -190l-44 -91l-280 114l-280 -114z" />
<glyph unicode="&#xdc;" horiz-adv-x="1376" d="M121 442v923h259v-923q0 -151 54 -191.5t254 -40.5q205 0 257.5 41t52.5 201v913h259v-908q0 -285 -109.5 -377t-447.5 -92q-357 0 -468 87t-111 367zM412 1529v160h177v-160h-177zM788 1529v160h177v-160h-177z" />
<glyph unicode="&#xdd;" horiz-adv-x="1245" d="M-6 1365h300l206 -360q17 -30 58 -111l29 -55l28 -55h7l29 55l29 55q37 74 59 111l208 360h304l-506 -844v-521h-259v521zM484 1602l363 128l47 -166l-384 -65z" />
<glyph unicode="&#xde;" horiz-adv-x="1253" d="M120 0v1365h259v-163h291h68q277 0 373.5 -96.5t96.5 -372.5q0 -274 -92 -364t-372 -90l-60 -1h-305v-278h-259zM379 496h295q176 0 223.5 40.5t47.5 191.5q0 173 -39.5 214.5t-205.5 41.5h-321v-488z" />
<glyph unicode="&#xdf;" horiz-adv-x="1105" d="M116 0v1004q0 217 85 294.5t324 77.5q236 0 330 -62t94 -218q0 -193 -207 -232v-4q163 -24 219.5 -107.5t56.5 -300.5q0 -259 -83.5 -361.5t-294.5 -102.5q-103 0 -166 17l-17 5q-2 1 -10 2l9 175q9 -3 13 -4l16 -5q55 -19 123 -19q112 0 145 58t33 256q0 306 -227 306 l-45 -1h-24v173l28 -1q219 0 219 121q0 134 -198 134q-194 0 -194 -188v-1017h-229z" />
<glyph unicode="&#xe0;" horiz-adv-x="1069" d="M78 284q0 298 355 298q237 0 288 -109h4v155q0 112 -39 148.5t-160 36.5q-175 0 -175 -134h-234q0 172 80 230t317 58q258 0 349 -71t91 -271v-625h-229l11 131l-6 1q-66 -143 -305 -143q-347 0 -347 295zM261 1214l83 154l325 -213l-50 -95zM310 294q0 -93 40 -122 t168 -29q209 0 209 141q0 144 -223 144q-194 0 -194 -134z" />
<glyph unicode="&#xe1;" horiz-adv-x="1069" d="M78 284q0 298 355 298q237 0 288 -109h4v155q0 112 -39 148.5t-160 36.5q-175 0 -175 -134h-234q0 172 80 230t317 58q258 0 349 -71t91 -271v-625h-229l11 131l-6 1q-66 -143 -305 -143q-347 0 -347 295zM310 294q0 -93 40 -122t168 -29q209 0 209 141q0 144 -223 144 q-194 0 -194 -134zM400 1155l325 213l83 -154l-358 -154z" />
<glyph unicode="&#xe2;" horiz-adv-x="1069" d="M78 284q0 298 355 298q237 0 288 -109h4v155q0 112 -39 148.5t-160 36.5q-175 0 -175 -134h-234q0 172 80 230t317 58q258 0 349 -71t91 -271v-625h-229l11 131l-6 1q-66 -143 -305 -143q-347 0 -347 295zM235 1148l297 203l301 -203l-51 -89l-250 126l-245 -126z M310 294q0 -93 40 -122t168 -29q209 0 209 141q0 144 -223 144q-194 0 -194 -134z" />
<glyph unicode="&#xe3;" horiz-adv-x="1069" d="M78 284q0 298 355 298q237 0 288 -109h4v155q0 112 -39 148.5t-160 36.5q-175 0 -175 -134h-234q0 172 80 230t317 58q258 0 349 -71t91 -271v-625h-229l11 131l-6 1q-66 -143 -305 -143q-347 0 -347 295zM193 1164q94 151 205 151q55 0 143 -49q97 -53 129 -53 q47 0 88 78l117 -64q-84 -154 -199 -154q-63 0 -150 51t-124 51q-50 0 -92 -78zM310 294q0 -93 40 -122t168 -29q209 0 209 141q0 144 -223 144q-194 0 -194 -134z" />
<glyph unicode="&#xe4;" horiz-adv-x="1069" d="M78 284q0 298 355 298q237 0 288 -109h4v155q0 112 -39 148.5t-160 36.5q-175 0 -175 -134h-234q0 172 80 230t317 58q258 0 349 -71t91 -271v-625h-229l11 131l-6 1q-66 -143 -305 -143q-347 0 -347 295zM257 1121v160h177v-160h-177zM310 294q0 -93 40 -122t168 -29 q209 0 209 141q0 144 -223 144q-194 0 -194 -134zM634 1121v160h177v-160h-177z" />
<glyph unicode="&#xe5;" horiz-adv-x="1069" d="M78 284q0 298 355 298q237 0 288 -109h4v155q0 112 -39 148.5t-160 36.5q-175 0 -175 -134h-234q0 172 80 230t317 58q258 0 349 -71t91 -271v-625h-229l11 131l-6 1q-66 -143 -305 -143q-347 0 -347 295zM310 294q0 -93 40 -122t168 -29q209 0 209 141q0 144 -223 144 q-194 0 -194 -134zM365 1215q0 168 168 168t168 -168t-168 -168t-168 168zM447 1215q0 -86 86 -86t86 86t-86 86t-86 -86z" />
<glyph unicode="&#xe6;" horiz-adv-x="1672" d="M78 290q0 284 376 284q215 0 267 -104h4v163q0 180 -192 180q-182 0 -182 -131h-236q9 171 84 228t288 57q312 0 362 -130h4q52 130 321 130q245 0 332 -94.5t87 -361.5v-66h-640q0 -193 35.5 -239.5t184.5 -46.5q123 0 155.5 25t37.5 124h227v-35q0 -285 -424 -285 q-295 0 -350 153h-5q-66 -152 -343 -152q-224 0 -308.5 64.5t-84.5 236.5zM310 294q0 -134 204 -134q215 0 215 135q0 125 -220 125q-199 0 -199 -126zM953 585h416l-1 38q0 173 -203 173q-211 0 -211 -182z" />
<glyph unicode="&#xe7;" horiz-adv-x="1005" d="M78 479q0 288 89 388t346 100q248 0 336 -72.5t88 -275.5h-227q0 167 -193 167q-137 0 -172 -53t-35 -260q0 -200 38.5 -251.5t188.5 -51.5q118 0 151.5 35.5t33.5 159.5h228v-33l-14 -145q-42 -198 -410 -198q-270 0 -359 97.5t-89 392.5zM380 -277l181 176l88 -106 l-206 -140z" />
<glyph unicode="&#xe8;" horiz-adv-x="1037" d="M78 497q0 279 92 375t359 96q256 0 343 -93.5t87 -367.5v-70h-647q-2 -32 -2 -42q0 -141 43.5 -188t173.5 -47q126 0 164 27.5t38 118.5h230v-37q0 -280 -420 -280q-285 0 -373 97t-88 411zM246 1214l83 154l325 -213l-50 -95zM314 577h417l-1 38q0 114 -39.5 148 t-171.5 34q-128 0 -166.5 -41t-38.5 -179z" />
<glyph unicode="&#xe9;" horiz-adv-x="1037" d="M78 497q0 279 92 375t359 96q256 0 343 -93.5t87 -367.5v-70h-647q-2 -32 -2 -42q0 -141 43.5 -188t173.5 -47q126 0 164 27.5t38 118.5h230v-37q0 -280 -420 -280q-285 0 -373 97t-88 411zM314 577h417l-1 38q0 114 -39.5 148t-171.5 34q-128 0 -166.5 -41t-38.5 -179z M385 1155l325 213l83 -154l-358 -154z" />
<glyph unicode="&#xea;" horiz-adv-x="1037" d="M78 497q0 279 92 375t359 96q256 0 343 -93.5t87 -367.5v-70h-647q-2 -32 -2 -42q0 -141 43.5 -188t173.5 -47q126 0 164 27.5t38 118.5h230v-37q0 -280 -420 -280q-285 0 -373 97t-88 411zM220 1148l297 203l301 -203l-51 -89l-250 126l-245 -126zM314 577h417l-1 38 q0 114 -39.5 148t-171.5 34q-128 0 -166.5 -41t-38.5 -179z" />
<glyph unicode="&#xeb;" horiz-adv-x="1037" d="M78 497q0 279 92 375t359 96q256 0 343 -93.5t87 -367.5v-70h-647q-2 -32 -2 -42q0 -141 43.5 -188t173.5 -47q126 0 164 27.5t38 118.5h230v-37q0 -280 -420 -280q-285 0 -373 97t-88 411zM242 1121v160h177v-160h-177zM314 577h417l-1 38q0 114 -39.5 148t-171.5 34 q-128 0 -166.5 -41t-38.5 -179zM619 1121v160h177v-160h-177z" />
<glyph unicode="&#xec;" horiz-adv-x="457" d="M-44 1214l83 154l325 -213l-50 -95zM113 0v956h229v-956h-229z" />
<glyph unicode="&#xed;" horiz-adv-x="457" d="M95 1155l325 213l83 -154l-358 -154zM113 0v956h229v-956h-229z" />
<glyph unicode="&#xee;" horiz-adv-x="457" d="M-70 1148l297 203l301 -203l-51 -89l-250 126l-245 -126zM113 0v956h229v-956h-229z" />
<glyph unicode="&#xef;" horiz-adv-x="457" d="M-8 1121v160h177v-160h-177zM113 0v956h229v-956h-229zM287 1121v160h177v-160h-177z" />
<glyph unicode="&#xf0;" horiz-adv-x="1058" d="M78 477q0 272 100.5 380.5t351.5 108.5l68 -1l-96 151l-165 -85l-51 101l156 80l-96 153h232l42 -65l148 75l50 -101l-138 -71l195 -305l45 -69q60 -98 60 -313q0 -526 -448 -526q-252 0 -353 108.5t-101 378.5zM310 494q0 -215 37 -269t184 -54q142 0 179.5 56.5 t37.5 273.5q0 183 -38.5 233.5t-179.5 50.5q-142 0 -181 -51.5t-39 -239.5z" />
<glyph unicode="&#xf1;" horiz-adv-x="1086" d="M113 0v956h227l-9 -161l5 -1q67 173 300 173q339 0 339 -316v-651h-229v576v36l-5 67q-16 107 -168 107q-231 0 -231 -219v-567h-229zM203 1164q94 151 205 151q55 0 143 -49q97 -53 129 -53q47 0 88 78l117 -64q-84 -154 -199 -154q-63 0 -150 51t-124 51q-50 0 -92 -78 z" />
<glyph unicode="&#xf2;" horiz-adv-x="1060" d="M78 486q0 301 85 391t370 90q277 0 363 -88.5t86 -373.5q0 -318 -84 -417t-354 -99q-293 0 -379.5 92t-86.5 405zM257 1214l83 154l325 -213l-50 -95zM310 494q0 -216 37 -270t185 -54q143 0 180.5 57t37.5 274q0 183 -39 234t-180 51q-143 0 -182 -51.5t-39 -240.5z" />
<glyph unicode="&#xf3;" horiz-adv-x="1060" d="M78 486q0 301 85 391t370 90q277 0 363 -88.5t86 -373.5q0 -318 -84 -417t-354 -99q-293 0 -379.5 92t-86.5 405zM310 494q0 -216 37 -270t185 -54q143 0 180.5 57t37.5 274q0 183 -39 234t-180 51q-143 0 -182 -51.5t-39 -240.5zM396 1155l325 213l83 -154l-358 -154z " />
<glyph unicode="&#xf4;" horiz-adv-x="1060" d="M78 486q0 301 85 391t370 90q277 0 363 -88.5t86 -373.5q0 -318 -84 -417t-354 -99q-293 0 -379.5 92t-86.5 405zM231 1148l297 203l301 -203l-51 -89l-250 126l-245 -126zM310 494q0 -216 37 -270t185 -54q143 0 180.5 57t37.5 274q0 183 -39 234t-180 51 q-143 0 -182 -51.5t-39 -240.5z" />
<glyph unicode="&#xf5;" horiz-adv-x="1060" d="M78 486q0 301 85 391t370 90q277 0 363 -88.5t86 -373.5q0 -318 -84 -417t-354 -99q-293 0 -379.5 92t-86.5 405zM189 1164q94 151 205 151q55 0 143 -49q97 -53 129 -53q47 0 88 78l117 -64q-84 -154 -199 -154q-63 0 -150 51t-124 51q-50 0 -92 -78zM310 494 q0 -216 37 -270t185 -54q143 0 180.5 57t37.5 274q0 183 -39 234t-180 51q-143 0 -182 -51.5t-39 -240.5z" />
<glyph unicode="&#xf6;" horiz-adv-x="1060" d="M78 486q0 301 85 391t370 90q277 0 363 -88.5t86 -373.5q0 -318 -84 -417t-354 -99q-293 0 -379.5 92t-86.5 405zM253 1121v160h177v-160h-177zM310 494q0 -216 37 -270t185 -54q143 0 180.5 57t37.5 274q0 183 -39 234t-180 51q-143 0 -182 -51.5t-39 -240.5zM630 1121 v160h177v-160h-177z" />
<glyph unicode="&#xf7;" horiz-adv-x="1286" d="M135 576v213h1016v-213h-1016zM500 302q0 143 143 143t143 -143t-143 -143t-143 143zM500 1064q0 143 143 143t143 -143t-143 -143t-143 143z" />
<glyph unicode="&#xf8;" horiz-adv-x="1043" d="M12 -8v143l82 66q-25 86 -25 278q0 307 84.5 397.5t372.5 90.5q292 0 378 -114l127 102v-143l-80 -64q23 -92 23 -256q0 -307 -85 -405t-352 -98q-298 0 -393 109zM301 466q0 -26 9 -101l405 345q-34 76 -206 76q-122 0 -165 -66t-43 -254zM332 241q37 -71 196 -71 q129 0 171.5 54t42.5 218q0 5 -7 120q0 7 -1 21z" />
<glyph unicode="&#xf9;" horiz-adv-x="1081" d="M109 314v642h229v-587q0 -122 34 -160.5t141 -38.5q220 0 220 264v522h229v-956h-229l13 164l-4 1q-67 -176 -308 -176q-325 0 -325 325zM267 1214l83 154l325 -213l-50 -95z" />
<glyph unicode="&#xfa;" horiz-adv-x="1081" d="M109 314v642h229v-587q0 -122 34 -160.5t141 -38.5q220 0 220 264v522h229v-956h-229l13 164l-4 1q-67 -176 -308 -176q-325 0 -325 325zM406 1155l325 213l83 -154l-358 -154z" />
<glyph unicode="&#xfb;" horiz-adv-x="1081" d="M109 314v642h229v-587q0 -122 34 -160.5t141 -38.5q220 0 220 264v522h229v-956h-229l13 164l-4 1q-67 -176 -308 -176q-325 0 -325 325zM241 1148l297 203l301 -203l-51 -89l-250 126l-245 -126z" />
<glyph unicode="&#xfc;" horiz-adv-x="1081" d="M109 314v642h229v-587q0 -122 34 -160.5t141 -38.5q220 0 220 264v522h229v-956h-229l13 164l-4 1q-67 -176 -308 -176q-325 0 -325 325zM263 1121v160h177v-160h-177zM640 1121v160h177v-160h-177z" />
<glyph unicode="&#xfd;" horiz-adv-x="890" d="M-10 956h246l120 -405l60 -203q5 -20 28 -102l29 -101h5l21 101q16 78 21 102l47 203l92 405h241l-251 -1016q-53 -216 -131.5 -290.5t-251.5 -74.5q-39 0 -81 4v169q30 -2 50 -2q146 0 185 254h-117zM311 1155l325 213l83 -154l-358 -154z" />
<glyph unicode="&#xfe;" horiz-adv-x="1085" d="M113 -410v1775h229v-551l-1 -1q80 155 301 155q208 0 286.5 -103.5t78.5 -377.5q0 -287 -78 -392.5t-289 -105.5q-225 0 -294 150h-4v-549h-229zM343 478q0 -186 43 -247t176 -61t173 58t40 249q0 196 -40.5 253t-180.5 57q-131 0 -171 -59t-40 -250z" />
<glyph unicode="&#xff;" horiz-adv-x="890" d="M-10 956h246l120 -405l60 -203q5 -20 28 -102l29 -101h5l21 101q16 78 21 102l47 203l92 405h241l-251 -1016q-53 -216 -131.5 -290.5t-251.5 -74.5q-39 0 -81 4v169q30 -2 50 -2q146 0 185 254h-117zM168 1121v160h177v-160h-177zM545 1121v160h177v-160h-177z" />
<glyph unicode="&#x152;" horiz-adv-x="2019" d="M69 669q0 454 97 581t443 127q334 0 417 -166h8l-8 148h913v-218h-665v-346h630v-191h-630v-383h672v-218h-920l8 142h-8q-95 -157 -391 -157q-367 0 -466.5 120t-99.5 561zM332 541l7 -153q14 -110 77 -144t254 -34q238 0 292.5 62t54.5 333q0 420 -45.5 485t-341.5 65 q-185 0 -241 -55.5t-56 -239.5v-180z" />
<glyph unicode="&#x153;" horiz-adv-x="1692" d="M78 483q0 290 83.5 387t333.5 97q307 0 362 -138h3q64 138 327 138q252 0 339 -93.5t87 -362.5l1 -67h-640q0 -192 35.5 -238.5t185.5 -46.5q181 0 187 124l2 23h230q0 -190 -90 -254t-357 -64q-249 0 -307 139h-4q-69 -138 -325 -138q-281 0 -367 94t-86 400zM310 507 q0 -228 35 -282.5t180 -54.5t182.5 49t37.5 237q0 226 -34.5 278t-184.5 52q-140 0 -178 -49t-38 -230zM971 584h417q0 129 -38 170.5t-159 41.5q-133 0 -176.5 -42t-43.5 -170z" />
<glyph unicode="&#x178;" horiz-adv-x="1245" d="M-6 1365h300l206 -360q17 -30 58 -111l29 -55l28 -55h7l29 55l29 55q37 74 59 111l208 360h304l-506 -844v-521h-259v521zM348 1529v160h177v-160h-177zM724 1529v160h177v-160h-177z" />
<glyph unicode="&#x2c6;" horiz-adv-x="1024" d="M213 1148l297 203l301 -203l-51 -89l-250 126l-245 -126z" />
<glyph unicode="&#x2dc;" horiz-adv-x="1024" d="M171 1164q94 151 205 151q55 0 143 -49q97 -53 129 -53q47 0 88 78l117 -64q-84 -154 -199 -154q-63 0 -150 51t-124 51q-50 0 -92 -78z" />
<glyph unicode="&#x2000;" horiz-adv-x="894" />
<glyph unicode="&#x2001;" horiz-adv-x="1789" />
<glyph unicode="&#x2002;" horiz-adv-x="894" />
<glyph unicode="&#x2003;" horiz-adv-x="1789" />
<glyph unicode="&#x2004;" horiz-adv-x="596" />
<glyph unicode="&#x2005;" horiz-adv-x="447" />
<glyph unicode="&#x2006;" horiz-adv-x="298" />
<glyph unicode="&#x2007;" horiz-adv-x="298" />
<glyph unicode="&#x2008;" horiz-adv-x="223" />
<glyph unicode="&#x2009;" horiz-adv-x="357" />
<glyph unicode="&#x200a;" horiz-adv-x="99" />
<glyph unicode="&#x2010;" horiz-adv-x="457" d="M0 419v218h457v-218h-457z" />
<glyph unicode="&#x2011;" horiz-adv-x="457" d="M0 419v218h457v-218h-457z" />
<glyph unicode="&#x2012;" horiz-adv-x="457" d="M0 419v218h457v-218h-457z" />
<glyph unicode="&#x2013;" horiz-adv-x="1284" d="M213 389v218h858v-218h-858z" />
<glyph unicode="&#x2014;" horiz-adv-x="1442" d="M0 389l5 218h1437v-218h-1442z" />
<glyph unicode="&#x2018;" horiz-adv-x="422" d="M83 916v239q0 238 206 238q11 0 41 -2v-107q-109 0 -109 -92v-30h91v-246h-229z" />
<glyph unicode="&#x2019;" horiz-adv-x="459" d="M99 890v107q110 0 110 92l-1 30h-90v246h229v-239q0 -238 -206 -238q-11 0 -42 2z" />
<glyph unicode="&#x201a;" horiz-adv-x="459" d="M92 -122q110 0 110 92l-1 30h-90v246h229v-238q0 -239 -206 -239q-11 0 -42 2v107z" />
<glyph unicode="&#x201c;" horiz-adv-x="770" d="M83 916v239q0 238 206 238q11 0 41 -2v-107q-109 0 -109 -92v-30h91v-246h-229zM430 916v239q0 238 206 238q11 0 42 -2v-107q-110 0 -110 -92v-30h91v-246h-229z" />
<glyph unicode="&#x201d;" horiz-adv-x="770" d="M92 890v107q110 0 110 92l-1 30h-90v246h229v-239q0 -238 -206 -238q-11 0 -42 2zM440 890v107q109 0 109 91l-1 31h-90v246h229v-239q0 -238 -206 -238q-11 0 -41 2z" />
<glyph unicode="&#x201e;" horiz-adv-x="770" d="M92 -122q110 0 110 92l-1 30h-90v246h229v-238q0 -239 -206 -239q-11 0 -42 2v107zM440 -122q109 0 109 91l-1 31h-90v246h229v-238q0 -239 -206 -239q-11 0 -41 2v107z" />
<glyph unicode="&#x2022;" horiz-adv-x="568" d="M0 694q0 118 83.5 201t202.5 83q117 0 199.5 -83.5t82.5 -200.5t-83 -200.5t-199 -83.5q-118 0 -202 83.5t-84 200.5z" />
<glyph unicode="&#x2026;" horiz-adv-x="1299" d="M103 0v246h229v-246h-229zM536 0v246h229v-246h-229zM968 0v246h229v-246h-229z" />
<glyph unicode="&#x202f;" horiz-adv-x="357" />
<glyph unicode="&#x2039;" horiz-adv-x="590" d="M92 514l239 482l155 -88l-195 -394l207 -385l-146 -93z" />
<glyph unicode="&#x203a;" horiz-adv-x="590" d="M93 129l206 385l-194 394l154 88l240 -482l-260 -478z" />
<glyph unicode="&#x205f;" horiz-adv-x="447" />
<glyph unicode="&#x2122;" horiz-adv-x="1693" d="M-1 1225v140h629v-140h-236v-638h-164v638h-229zM691 587v778h256l143 -359q15 -36 38 -106l18 -52l14 -41l13 40q37 114 55 159l141 359h261v-778h-164v424q0 51 3 113l3 57l1 22l-7 -21l-18 -53q-24 -72 -38 -107l-176 -435h-146l-177 432q-16 41 -38 106l-18 53 q-1 3 -8 22l2 -22q6 -116 6 -167v-424h-164z" />
<glyph unicode="&#xe000;" horiz-adv-x="955" d="M0 0v955h955v-955h-955z" />
</font>
</defs>
</svg>
