<?xml version="1.0" encoding="utf-8"?>
<!-- Generator: Adobe Illustrator 15.1.0, SVG Export Plug-In  -->
<!DOCTYPE svg [
	<!ENTITY ns_flows "http://ns.adobe.com/Flows/1.0/">
]>
<svg version="1.2" baseProfile="tiny"
	 xmlns="http://www.w3.org/2000/svg" xmlns:xlink="http://www.w3.org/1999/xlink" xmlns:a="http://ns.adobe.com/AdobeSVGViewerExtensions/3.0/"
	 x="0px" y="0px" width="44px" height="44px" viewBox="-0.28 -0.46 44 44" xml:space="preserve">
<defs>
</defs>
<path fill="#FFFFFF" stroke="#FFFFFF" stroke-width="0.5" stroke-miterlimit="10" d="M14.28,14.63h3.53l3.91,5.23l3.91-5.23h3.53
	v13.82h-3.25V19.8l-4.19,5.29h-0.08l-4.15-5.23v8.59h-3.21V14.63z"/>
<path fill="#FFFFFF" stroke="#FFFFFF" stroke-miterlimit="10" d="M37.05,28.39h5.89v1.57c0,5.62-1.22,9.13-3.66,10.53
	c-2.44,1.4-8.58,2.1-18.41,2.1c-8.81,0-14.4-1.23-16.79-3.7C1.69,36.42,0.5,30.61,0.5,21.47c0-7.15,0.27-11.65,0.81-13.49
	c0.54-1.84,2.08-3.49,4.62-4.94c2.98-1.69,9.41-2.54,19.3-2.54c6.7,0,11.21,0.81,13.54,2.45c2.33,1.63,3.49,4.78,3.49,9.46
	l0.04,1.12H36.4l-0.04-1.27c0-3.32-0.69-5.46-2.06-6.41C32.92,4.9,29.82,4.43,25,4.43c-8.47,0-13.65,0.55-15.52,1.66
	C7.6,7.2,6.66,10.27,6.66,15.31c0,11.58,0.63,18.37,1.89,20.36c1.26,1.99,5.56,2.99,12.9,2.99c6.98,0,11.35-0.43,13.08-1.3
	c1.73-0.87,2.6-3.04,2.6-6.53L37.05,28.39z"/>
</svg>
