<?xml version="1.0" encoding="utf-8"?>
<!-- Generator: Adobe Illustrator 15.1.0, SVG Export Plug-In  -->
<!DOCTYPE svg PUBLIC "-//W3C//DTD SVG 1.1//EN" "http://www.w3.org/Graphics/SVG/1.1/DTD/svg11.dtd" [
	<!ENTITY ns_flows "http://ns.adobe.com/Flows/1.0/">
]>
<svg version="1.1"
	 xmlns="http://www.w3.org/2000/svg" xmlns:xlink="http://www.w3.org/1999/xlink" xmlns:a="http://ns.adobe.com/AdobeSVGViewerExtensions/3.0/"
	 x="0px" y="0px" width="360px" height="360px" viewBox="-98.86 -150.52 360 360" enable-background="new -98.86 -150.52 360 360"
	 xml:space="preserve">
<defs>
</defs>
<path fill="#FFFFFF" d="M0,0h16.36l3.32,3.24v55.73h-6.56V6.56H6.56v52.41H0V0z"/>
<path fill="#FFFFFF" d="M45.85,52.41v6.56H26.17V0h19.68v6.56H32.73v26.17h6.56v6.56h-6.56v13.12H45.85z"/>
<path fill="#FFFFFF" d="M65.6,26.17V6.56h-6.56v45.85h6.56V39.29h-3.32v-6.56h9.88v26.24H54.1l-1.62-1.62V1.62L54.1,0h16.36
	l1.69,1.62v24.55H65.6z"/>
<path fill="#FFFFFF" d="M98.4,32.73l-3.32,3.32l3.32,3.24v19.68h-6.56V39.29h-6.56v19.68h-6.56V0h17.99l1.69,1.62V32.73z
	 M91.85,6.56h-6.56v26.17h6.56V6.56z"/>
<path fill="#FFFFFF" d="M124.65,1.62v55.73l-1.7,1.62h-16.37l-1.62-1.62V1.62L106.59,0h16.37L124.65,1.62z M118.09,6.56h-6.56v45.85
	h6.56V6.56z"/>
<path fill="#FFFFFF" d="M131.21,0h16.36l3.32,3.24v55.73h-6.56V6.56h-6.56v52.41h-6.56V0z"/>
<path fill="#FFFFFF" d="M164.01,58.97h-6.56V0h6.56V58.97z"/>
</svg>
