<?xml version="1.0" encoding="utf-8"?>
<!-- Generator: Adobe Illustrator 15.1.0, SVG Export Plug-In  -->
<!DOCTYPE svg PUBLIC "-//W3C//DTD SVG 1.1//EN" "http://www.w3.org/Graphics/SVG/1.1/DTD/svg11.dtd" [
	<!ENTITY ns_flows "http://ns.adobe.com/Flows/1.0/">
]>
<svg version="1.1"
	 xmlns="http://www.w3.org/2000/svg" xmlns:xlink="http://www.w3.org/1999/xlink" xmlns:a="http://ns.adobe.com/AdobeSVGViewerExtensions/3.0/"
	 x="0px" y="0px" width="360px" height="360px" viewBox="-86.7 -166.32 360 360" enable-background="new -86.7 -166.32 360 360"
	 xml:space="preserve">
<defs>
</defs>
<path fill="#FFFFFF" d="M4.15,13.12l-0.33-1.24H3.61v1.24v13.95H0V0.29h3.5l3.83,13.95l0.33,1.24h0.22v-1.24V0.29h3.61v26.78h-3.5
	L4.15,13.12z"/>
<path fill="#FFFFFF" d="M19.02,8.86l0.11,0.25h0.07l0.11-0.25l1.97-8.56h3.86l-4.01,15.37v11.4H17.2v-11.4L13.19,0.29h3.86
	L19.02,8.86z"/>
<path fill="#FFFFFF" d="M37.09,17.89v3.68c0,0,0.04,5.79-5.25,5.79s-5.25-5.79-5.25-5.79V5.79c0,0-0.04-5.79,5.25-5.79
	s5.25,5.79,5.25,5.79v3.68h-3.68V5.79c0,0,0.15-1.96-1.49-1.96c-1.38,0-1.38,1.96-1.38,1.96v15.78c0,0,0,1.97,1.38,1.97
	c1.64,0,1.49-1.97,1.49-1.97v-3.68H37.09z"/>
<path fill="#FFFFFF" d="M55.3,17.89v3.68c0,0,0.04,5.79-5.25,5.79s-5.25-5.79-5.25-5.79V5.79c0,0-0.04-5.79,5.25-5.79
	s5.25,5.79,5.25,5.79v3.68h-3.68V5.79c0,0,0.15-1.96-1.49-1.96c-1.38,0-1.38,1.96-1.38,1.96v15.78c0,0,0,1.97,1.38,1.97
	c1.64,0,1.49-1.97,1.49-1.97v-3.68H55.3z"/>
<path fill="#FFFFFF" d="M62.66,27.36c-5.28,0-5.25-5.79-5.25-5.79V5.79c0,0-0.04-5.79,5.25-5.79s5.25,5.79,5.25,5.79v15.78
	C67.91,21.57,67.94,27.36,62.66,27.36z M62.66,3.83c-1.38,0-1.31,1.96-1.31,1.96v15.78c0,0-0.07,1.97,1.31,1.97
	c1.38,0,1.31-1.97,1.31-1.97V5.79C63.97,5.79,64.05,3.83,62.66,3.83z"/>
<path fill="#FFFFFF" d="M70.57,0.29h3.93v23.13h5.21v3.64h-9.14V0.29z"/>
<path fill="#FFFFFF" d="M81.32,0.29h3.93v23.13h5.21v3.64h-9.14V0.29z"/>
<path fill="#FFFFFF" d="M91.33,27.07l4.04-26.78h4.81l4.04,26.78h-3.83l-0.73-5.47h-3.79l-0.73,5.47H91.33z M98,9l-0.11-0.69h-0.22
	L97.56,9l-1.13,8.45h2.7L98,9z"/>
<path fill="#FFFFFF" d="M106.05,27.07V0.29c0,0,1.97,0,3.46,0c4.7,0,7.18,1.79,7.18,7.1c0,2.48-0.55,3.9-2.44,5.54
	c0,0,2.73,1.24,2.73,6.56c0,3.93-1.38,7.4-6.08,7.58H106.05z M109.99,4.19v7.14c0.73,0,2.91,0.11,2.91-3.57
	C112.9,4.08,110.72,4.19,109.99,4.19z M109.99,14.94v8.23c0.73,0,2.91,0.29,2.91-4.12C112.9,14.65,110.72,14.94,109.99,14.94z"/>
<path fill="#FFFFFF" d="M124.31,27.36c-5.28,0-5.25-5.79-5.25-5.79V5.79c0,0-0.04-5.79,5.25-5.79s5.25,5.79,5.25,5.79v15.78
	C129.55,21.57,129.59,27.36,124.31,27.36z M124.31,3.83c-1.38,0-1.31,1.96-1.31,1.96v15.78c0,0-0.07,1.97,1.31,1.97
	c1.38,0,1.31-1.97,1.31-1.97V5.79C125.62,5.79,125.69,3.83,124.31,3.83z"/>
<path fill="#FFFFFF" d="M139.24,27.07l-2.04-11.29h-1.06v11.29h-3.93V0.29h3.93c4.66,0,6.7,2.7,6.7,7.72c0,2.66-0.69,5.06-2.18,6.08
	l2.51,12.97H139.24z M136.15,4.19v7.94c1.09,0,2.91-0.15,2.91-3.97C139.06,4.34,137.24,4.19,136.15,4.19z"/>
<path fill="#FFFFFF" d="M144.27,27.07l4.04-26.78h4.81l4.04,26.78h-3.82l-0.73-5.47h-3.79l-0.73,5.47H144.27z M150.94,9l-0.11-0.69
	h-0.22L150.5,9l-1.13,8.45h2.7L150.94,9z"/>
<path fill="#FFFFFF" d="M156.84,4.34V0.29h11.37v4.04h-3.71v22.73h-3.93V4.34H156.84z"/>
<path fill="#FFFFFF" d="M169.74,0.29h9v4.04h-5.06v7.03h3.64v4.3h-3.64v7.36h5.06v4.04h-9V0.29z"/>
<path fill="#FFFFFF" d="M185.8,0c4.74-0.11,5.5,4.12,5.5,7.1l-3.86,0.36c0-1.79-0.25-3.86-1.57-3.86c-1.02,0.04-1.35,1.13-1.35,2.66
	c0,1.82,1.57,3.86,3.1,6.08c1.82,2.73,3.68,5.39,3.68,8.27c0,3.57-1.17,6.74-5.46,6.74c-5.06,0-5.72-3.82-5.72-7.79l3.86-0.36
	c0,2.22,0.22,4.55,1.86,4.55c1.17,0,1.6-1.27,1.6-2.95c0-1.78-1.68-3.93-3.17-6.19c-1.86-2.73-3.61-5.47-3.61-8.34
	C180.67,3.35,182.09,0.08,185.8,0z"/>
</svg>
