<?xml version="1.0" encoding="utf-8"?>
<!-- Generator: Adobe Illustrator 15.1.0, SVG Export Plug-In  -->
<!DOCTYPE svg PUBLIC "-//W3C//DTD SVG 1.1//EN" "http://www.w3.org/Graphics/SVG/1.1/DTD/svg11.dtd" [
	<!ENTITY ns_flows "http://ns.adobe.com/Flows/1.0/">
]>
<svg version="1.1"
	 xmlns="http://www.w3.org/2000/svg" xmlns:xlink="http://www.w3.org/1999/xlink" xmlns:a="http://ns.adobe.com/AdobeSVGViewerExtensions/3.0/"
	 x="0px" y="0px" width="360px" height="360px" viewBox="-14.68 -132.53 360 360" enable-background="new -14.68 -132.53 360 360"
	 xml:space="preserve">
<defs>
</defs>
<path fill="#FFFFFF" d="M18.9,24.14h-3.33L4.52,7.29v16.85H0.85V0.2H4.2l11.07,16.81V0.2h3.63V24.14z"/>
<path fill="#FFFFFF" d="M40.46,24.14H25.14V0.2h15.32v3.27H28.8v6.98h9.95v3.23H28.8v7.19h11.66V24.14z"/>
<path fill="#FFFFFF" d="M71.23,0.2l-6.26,23.94h-3.15L56.93,7.36l-4.85,16.78h-3.17L42.67,0.2h3.83l4.17,17.11L55.49,0.2h2.92
	l4.81,17.11L67.4,0.2H71.23z"/>
<path fill="#FFFFFF" d="M97.81,0.2l-7.16,14.09v9.85h-3.66v-9.85L79.85,0.2h3.97l5,10.52L93.83,0.2H97.81z"/>
<path fill="#FFFFFF" d="M117.45,12.16c0,1.89-0.04,3.34-0.11,4.34c-0.07,1-0.27,1.94-0.6,2.82c-0.33,0.88-0.85,1.7-1.58,2.45
	c-1.72,1.71-3.83,2.56-6.32,2.56c-2.5,0-4.59-0.85-6.29-2.55c-0.74-0.77-1.28-1.58-1.61-2.45c-0.33-0.86-0.53-1.8-0.61-2.82
	c-0.08-1.01-0.11-2.46-0.11-4.36c0-1.46,0.02-2.61,0.06-3.46c0.04-0.85,0.13-1.64,0.26-2.35c0.14-0.71,0.36-1.38,0.67-2
	c0.31-0.62,0.76-1.22,1.34-1.81c1.7-1.7,3.79-2.54,6.29-2.54c2.5,0,4.6,0.85,6.32,2.54c0.73,0.77,1.26,1.58,1.58,2.45
	c0.32,0.87,0.52,1.81,0.59,2.82C117.41,8.82,117.45,10.27,117.45,12.16z M113.82,12.17c0-2.38-0.09-4.06-0.27-5.03
	s-0.56-1.77-1.14-2.39c-0.42-0.45-0.94-0.81-1.58-1.07c-0.64-0.27-1.3-0.4-1.98-0.4c-0.69,0-1.36,0.13-2,0.4
	c-0.64,0.27-1.17,0.63-1.58,1.07c-0.58,0.65-0.96,1.45-1.14,2.41c-0.18,0.96-0.27,2.63-0.27,5.02c0,1.27,0.02,2.28,0.06,3.04
	c0.04,0.76,0.11,1.42,0.22,1.99c0.11,0.57,0.24,1.01,0.39,1.33c0.15,0.32,0.4,0.67,0.74,1.06c0.44,0.46,0.97,0.82,1.6,1.08
	c0.63,0.26,1.29,0.39,1.98,0.39c1.44,0,2.63-0.49,3.56-1.48c0.39-0.43,0.69-0.91,0.9-1.46c0.2-0.55,0.34-1.29,0.41-2.23
	C113.78,14.96,113.82,13.72,113.82,12.17z"/>
<path fill="#FFFFFF" d="M140.27,24.14h-4.24l-5.04-10.06h-4.53v10.06h-3.66V0.2h9.3c1.47,0,2.77,0.3,3.9,0.9
	c1.13,0.6,2.01,1.42,2.61,2.48c0.61,1.06,0.91,2.27,0.91,3.62c0,1.64-0.44,3.02-1.32,4.12c-0.88,1.1-2.03,1.85-3.44,2.24
	L140.27,24.14z M135.9,7.23c0-1.17-0.37-2.09-1.11-2.76c-0.74-0.67-1.73-1.01-2.96-1.01h-5.37v7.49h5.37c1.23,0,2.21-0.33,2.96-1
	C135.53,9.29,135.9,8.38,135.9,7.23z"/>
<path fill="#FFFFFF" d="M163.5,24.14h-4.27l-6.73-11.81l-4.02,4.84v6.96h-3.66V0.2h3.66v12.04l9.79-12.04h4.43l-7.77,9.38
	L163.5,24.14z"/>
<path fill="#FFFFFF" d="M191.33,16.97c-0.2,1.18-0.55,2.24-1.06,3.17c-0.51,0.93-1.13,1.7-1.87,2.32s-1.59,1.09-2.54,1.41
	c-0.96,0.32-1.98,0.48-3.06,0.48c-0.83,0-1.62-0.1-2.36-0.29c-0.74-0.19-1.45-0.48-2.13-0.88c-0.68-0.4-1.28-0.85-1.81-1.38
	c-0.74-0.77-1.28-1.58-1.61-2.45c-0.33-0.86-0.53-1.8-0.61-2.82c-0.08-1.01-0.11-2.46-0.11-4.36c0-1.46,0.02-2.61,0.06-3.46
	c0.04-0.85,0.13-1.64,0.26-2.35c0.14-0.71,0.36-1.38,0.67-2c0.31-0.62,0.76-1.22,1.34-1.81c0.83-0.83,1.78-1.46,2.84-1.9
	S181.56,0,182.79,0c2.24,0,4.12,0.64,5.64,1.91c1.52,1.27,2.48,3.09,2.9,5.46h-3.71c-0.28-1.26-0.84-2.25-1.67-2.99
	c-0.83-0.74-1.88-1.11-3.16-1.11c-0.7,0-1.36,0.12-1.98,0.38c-0.62,0.25-1.14,0.61-1.57,1.06c-0.32,0.35-0.56,0.7-0.74,1.06
	c-0.18,0.35-0.32,0.82-0.43,1.41c-0.11,0.58-0.18,1.24-0.22,1.98c-0.04,0.73-0.06,1.74-0.06,3.02c0,1.27,0.02,2.26,0.06,2.99
	c0.04,0.73,0.11,1.38,0.22,1.98c0.11,0.59,0.25,1.06,0.43,1.4c0.17,0.34,0.42,0.71,0.74,1.09c0.43,0.45,0.95,0.8,1.57,1.06
	c0.62,0.26,1.28,0.39,1.98,0.39c0.87,0,1.62-0.17,2.28-0.51s1.2-0.82,1.64-1.44c0.44-0.62,0.75-1.34,0.94-2.15H191.33z"/>
<path fill="#FFFFFF" d="M199.8,24.14h-3.66V0.2h3.66V24.14z"/>
<path fill="#FFFFFF" d="M220.74,3.46h-6.58v20.67h-3.63V3.46h-6.6V0.2h16.81V3.46z"/>
<path fill="#FFFFFF" d="M239.88,0.2l-7.16,14.09v9.85h-3.66v-9.85L221.92,0.2h3.97l5,10.52l5.01-10.52H239.88z"/>
<path fill="#FFFFFF" d="M17.16,52.27c-0.2,1.18-0.55,2.24-1.06,3.17c-0.51,0.93-1.13,1.7-1.87,2.32c-0.74,0.62-1.59,1.09-2.54,1.41
	s-1.98,0.48-3.06,0.48c-0.83,0-1.62-0.1-2.36-0.29s-1.45-0.48-2.13-0.88c-0.68-0.39-1.28-0.85-1.81-1.38
	c-0.74-0.77-1.28-1.58-1.61-2.45c-0.33-0.87-0.53-1.8-0.61-2.82C0.04,50.82,0,49.37,0,47.47c0-1.46,0.02-2.61,0.06-3.46
	c0.04-0.85,0.13-1.64,0.26-2.35c0.14-0.71,0.36-1.38,0.67-2c0.31-0.62,0.76-1.22,1.34-1.81c0.83-0.83,1.78-1.46,2.84-1.9
	c1.06-0.43,2.21-0.65,3.45-0.65c2.24,0,4.12,0.64,5.64,1.91c1.52,1.27,2.48,3.09,2.9,5.46h-3.71c-0.28-1.26-0.84-2.25-1.67-2.99
	c-0.83-0.74-1.88-1.11-3.16-1.11c-0.7,0-1.36,0.13-1.98,0.38c-0.62,0.25-1.14,0.61-1.57,1.07c-0.32,0.35-0.56,0.7-0.74,1.06
	c-0.17,0.35-0.32,0.82-0.43,1.41c-0.11,0.58-0.18,1.24-0.22,1.98c-0.04,0.73-0.06,1.74-0.06,3.02c0,1.27,0.02,2.26,0.06,2.99
	c0.04,0.73,0.11,1.38,0.22,1.98c0.11,0.59,0.25,1.06,0.43,1.4c0.18,0.34,0.42,0.71,0.74,1.09c0.43,0.45,0.95,0.8,1.57,1.06
	c0.62,0.26,1.28,0.38,1.98,0.38c0.86,0,1.62-0.17,2.28-0.51s1.2-0.82,1.64-1.44c0.44-0.62,0.75-1.34,0.94-2.15H17.16z"/>
<path fill="#FFFFFF" d="M38.98,59.44h-3.63V48.98h-9.72v10.46h-3.66V35.5h3.66v10.21h9.72V35.5h3.63V59.44z"/>
<path fill="#FFFFFF" d="M62.85,59.44h-3.87l-1.64-4.81h-9.45l-1.64,4.81h-3.87l8.78-23.94h2.92L62.85,59.44z M56.32,51.55
	L52.7,40.92l-3.73,10.62H56.32z"/>
<path fill="#FFFFFF" d="M83.69,59.44h-4.24l-5.04-10.06h-4.53v10.06h-3.66V35.5h9.3c1.47,0,2.77,0.3,3.9,0.9
	c1.13,0.6,2.01,1.42,2.61,2.48c0.61,1.06,0.91,2.27,0.91,3.62c0,1.64-0.44,3.02-1.32,4.12c-0.88,1.1-2.03,1.85-3.44,2.24
	L83.69,59.44z M79.32,42.54c0-1.17-0.37-2.09-1.11-2.76c-0.74-0.67-1.73-1.01-2.96-1.01h-5.37v7.49h5.37c1.23,0,2.21-0.33,2.96-1
	C78.95,44.59,79.32,43.69,79.32,42.54z"/>
<path fill="#FFFFFF" d="M102.95,38.77h-6.58v20.67h-3.63V38.77h-6.6V35.5h16.81V38.77z"/>
<path fill="#FFFFFF" d="M122.39,59.44h-15.32V35.5h15.32v3.27h-11.66v6.98h9.95v3.23h-9.95v7.19h11.66V59.44z"/>
<path fill="#FFFFFF" d="M144.82,59.44h-4.24l-5.04-10.06h-4.53v10.06h-3.66V35.5h9.3c1.47,0,2.77,0.3,3.9,0.9
	c1.13,0.6,2.01,1.42,2.61,2.48c0.61,1.06,0.91,2.27,0.91,3.62c0,1.64-0.44,3.02-1.32,4.12c-0.88,1.1-2.03,1.85-3.44,2.24
	L144.82,59.44z M140.45,42.54c0-1.17-0.37-2.09-1.11-2.76c-0.74-0.67-1.73-1.01-2.96-1.01h-5.37v7.49h5.37c1.23,0,2.21-0.33,2.96-1
	C140.08,44.59,140.45,43.69,140.45,42.54z"/>
<path fill="#FFFFFF" d="M172.43,52.61c0,1.06-0.21,2.03-0.62,2.91c-0.42,0.88-1.02,1.63-1.8,2.25c-0.78,0.62-1.69,1.08-2.73,1.4
	c-1.04,0.31-2.19,0.47-3.45,0.47c-1.83,0-3.42-0.24-4.77-0.73c-1.35-0.49-2.59-1.3-3.72-2.43l2.43-2.4c0.54,0.55,1.12,1,1.77,1.35
	c0.64,0.35,1.32,0.6,2.04,0.74c0.72,0.14,1.49,0.21,2.32,0.21c1.54,0,2.75-0.32,3.63-0.97c0.88-0.64,1.31-1.55,1.31-2.7
	c0-1.08-0.32-1.91-0.95-2.48c-0.29-0.28-0.62-0.5-0.99-0.65c-0.38-0.15-0.92-0.27-1.62-0.37l-2.82-0.39
	c-1.95-0.27-3.46-0.91-4.55-1.92c-1.16-1.08-1.74-2.6-1.74-4.56c0-1.39,0.32-2.62,0.97-3.68c0.65-1.06,1.57-1.89,2.77-2.47
	c1.2-0.59,2.62-0.88,4.25-0.88c1.61,0,3,0.22,4.17,0.65c1.17,0.43,2.26,1.13,3.27,2.07l-2.33,2.3c-0.48-0.47-1-0.84-1.54-1.11
	c-0.55-0.27-1.12-0.46-1.71-0.58c-0.59-0.12-1.24-0.17-1.95-0.17c-0.91,0-1.69,0.16-2.35,0.48c-0.66,0.32-1.16,0.76-1.5,1.32
	c-0.34,0.56-0.52,1.2-0.52,1.93c0,0.95,0.3,1.69,0.9,2.23c0.3,0.25,0.68,0.48,1.17,0.68c0.48,0.2,0.99,0.34,1.53,0.42l2.73,0.41
	c1.09,0.17,1.99,0.39,2.68,0.66s1.29,0.65,1.78,1.11C171.78,48.84,172.43,50.48,172.43,52.61z"/>
<path fill="#FFFFFF" d="M193.58,52.27c-0.2,1.18-0.55,2.24-1.06,3.17c-0.51,0.93-1.13,1.7-1.87,2.32c-0.74,0.62-1.59,1.09-2.54,1.41
	c-0.96,0.32-1.98,0.48-3.06,0.48c-0.83,0-1.62-0.1-2.36-0.29c-0.74-0.19-1.45-0.48-2.12-0.88c-0.68-0.39-1.28-0.85-1.81-1.38
	c-0.75-0.77-1.28-1.58-1.61-2.45c-0.33-0.87-0.53-1.8-0.61-2.82c-0.08-1.01-0.12-2.46-0.12-4.36c0-1.46,0.02-2.61,0.06-3.46
	c0.04-0.85,0.13-1.64,0.26-2.35c0.14-0.71,0.36-1.38,0.67-2c0.31-0.62,0.76-1.22,1.34-1.81c0.83-0.83,1.78-1.46,2.84-1.9
	c1.06-0.43,2.21-0.65,3.45-0.65c2.24,0,4.12,0.64,5.64,1.91c1.52,1.27,2.48,3.09,2.9,5.46h-3.71c-0.28-1.26-0.84-2.25-1.67-2.99
	c-0.83-0.74-1.88-1.11-3.16-1.11c-0.7,0-1.36,0.13-1.98,0.38c-0.62,0.25-1.14,0.61-1.57,1.07c-0.32,0.35-0.56,0.7-0.74,1.06
	c-0.17,0.35-0.32,0.82-0.43,1.41s-0.18,1.24-0.22,1.98c-0.04,0.73-0.06,1.74-0.06,3.02c0,1.27,0.02,2.26,0.06,2.99
	c0.04,0.73,0.11,1.38,0.22,1.98c0.11,0.59,0.25,1.06,0.43,1.4c0.18,0.34,0.42,0.71,0.74,1.09c0.43,0.45,0.95,0.8,1.57,1.06
	c0.62,0.26,1.28,0.38,1.98,0.38c0.86,0,1.62-0.17,2.28-0.51s1.2-0.82,1.64-1.44c0.44-0.62,0.75-1.34,0.94-2.15H193.58z"/>
<path fill="#FFFFFF" d="M215.4,59.44h-3.63V48.98h-9.72v10.46h-3.66V35.5h3.66v10.21h9.72V35.5h3.63V59.44z"/>
<path fill="#FFFFFF" d="M238,47.47c0,1.89-0.04,3.34-0.11,4.34c-0.07,1-0.27,1.94-0.6,2.82c-0.33,0.88-0.85,1.7-1.58,2.45
	c-1.72,1.71-3.83,2.56-6.32,2.56c-2.5,0-4.59-0.85-6.29-2.54c-0.74-0.77-1.28-1.58-1.61-2.45c-0.33-0.87-0.53-1.8-0.61-2.82
	c-0.08-1.01-0.12-2.46-0.12-4.36c0-1.46,0.02-2.61,0.06-3.46c0.04-0.85,0.12-1.64,0.26-2.35c0.14-0.71,0.36-1.38,0.67-2
	c0.31-0.62,0.76-1.22,1.34-1.81c1.7-1.7,3.79-2.54,6.29-2.54c2.5,0,4.6,0.85,6.32,2.54c0.73,0.77,1.26,1.58,1.58,2.45
	c0.32,0.87,0.52,1.81,0.59,2.81C237.96,44.12,238,45.57,238,47.47z M234.37,47.47c0-2.38-0.09-4.06-0.27-5.03
	c-0.18-0.97-0.56-1.77-1.14-2.39c-0.42-0.45-0.94-0.81-1.58-1.07c-0.64-0.27-1.3-0.4-1.98-0.4c-0.69,0-1.36,0.13-2,0.4
	c-0.64,0.27-1.17,0.63-1.58,1.07c-0.58,0.64-0.96,1.45-1.14,2.41c-0.18,0.96-0.27,2.63-0.27,5.02c0,1.27,0.02,2.28,0.06,3.04
	c0.04,0.76,0.11,1.42,0.22,1.99s0.24,1.01,0.39,1.33c0.15,0.32,0.4,0.67,0.74,1.07c0.44,0.46,0.97,0.82,1.6,1.08
	c0.63,0.26,1.29,0.39,1.98,0.39c1.44,0,2.63-0.49,3.56-1.47c0.39-0.43,0.69-0.91,0.89-1.46c0.2-0.55,0.34-1.29,0.41-2.23
	C234.33,50.27,234.37,49.02,234.37,47.47z"/>
<path fill="#FFFFFF" d="M259.72,47.47c0,1.89-0.04,3.34-0.11,4.34c-0.07,1-0.27,1.94-0.6,2.82c-0.33,0.88-0.85,1.7-1.58,2.45
	c-1.72,1.71-3.83,2.56-6.32,2.56c-2.5,0-4.59-0.85-6.29-2.54c-0.75-0.77-1.28-1.58-1.61-2.45c-0.33-0.87-0.53-1.8-0.61-2.82
	c-0.08-1.01-0.12-2.46-0.12-4.36c0-1.46,0.02-2.61,0.06-3.46c0.04-0.85,0.13-1.64,0.26-2.35c0.14-0.71,0.36-1.38,0.67-2
	c0.31-0.62,0.76-1.22,1.34-1.81c1.7-1.7,3.79-2.54,6.29-2.54c2.5,0,4.6,0.85,6.32,2.54c0.73,0.77,1.26,1.58,1.58,2.45
	c0.32,0.87,0.52,1.81,0.59,2.81C259.68,44.12,259.72,45.57,259.72,47.47z M256.09,47.47c0-2.38-0.09-4.06-0.27-5.03
	c-0.18-0.97-0.56-1.77-1.14-2.39c-0.42-0.45-0.95-0.81-1.58-1.07c-0.64-0.27-1.3-0.4-1.98-0.4c-0.69,0-1.35,0.13-2,0.4
	c-0.64,0.27-1.17,0.63-1.58,1.07c-0.58,0.64-0.96,1.45-1.14,2.41c-0.18,0.96-0.27,2.63-0.27,5.02c0,1.27,0.02,2.28,0.06,3.04
	c0.04,0.76,0.11,1.42,0.22,1.99s0.24,1.01,0.39,1.33c0.15,0.32,0.4,0.67,0.74,1.07c0.44,0.46,0.97,0.82,1.6,1.08
	c0.63,0.26,1.29,0.39,1.98,0.39c1.44,0,2.63-0.49,3.56-1.47c0.39-0.43,0.69-0.91,0.89-1.46c0.2-0.55,0.34-1.29,0.41-2.23
	C256.05,50.27,256.09,49.02,256.09,47.47z"/>
<path fill="#FFFFFF" d="M280.26,59.44h-15.19V35.5h3.66v20.67h11.53V59.44z"/>
<path fill="#FFFFFF" d="M17.16,87.58c-0.2,1.18-0.55,2.24-1.06,3.16c-0.51,0.93-1.13,1.7-1.87,2.32c-0.74,0.62-1.59,1.09-2.54,1.41
	s-1.98,0.48-3.06,0.48c-0.83,0-1.62-0.1-2.36-0.29c-0.74-0.19-1.45-0.48-2.13-0.88c-0.68-0.39-1.28-0.85-1.81-1.38
	c-0.74-0.77-1.28-1.58-1.61-2.45c-0.33-0.86-0.53-1.8-0.61-2.81C0.04,86.13,0,84.68,0,82.78c0-1.46,0.02-2.61,0.06-3.46
	c0.04-0.85,0.13-1.64,0.26-2.35c0.14-0.71,0.36-1.38,0.67-2c0.31-0.62,0.76-1.22,1.34-1.81c0.83-0.83,1.78-1.46,2.84-1.9
	c1.06-0.43,2.21-0.65,3.45-0.65c2.24,0,4.12,0.64,5.64,1.91c1.52,1.27,2.48,3.09,2.9,5.46h-3.71c-0.28-1.26-0.84-2.25-1.67-2.99
	c-0.83-0.74-1.88-1.11-3.16-1.11c-0.7,0-1.36,0.13-1.98,0.38c-0.62,0.25-1.14,0.61-1.57,1.06c-0.32,0.35-0.56,0.7-0.74,1.06
	c-0.17,0.36-0.32,0.82-0.43,1.41c-0.11,0.58-0.18,1.24-0.22,1.97c-0.04,0.73-0.06,1.74-0.06,3.02c0,1.27,0.02,2.26,0.06,2.99
	c0.04,0.73,0.11,1.38,0.22,1.97c0.11,0.59,0.25,1.06,0.43,1.4c0.18,0.35,0.42,0.71,0.74,1.09c0.43,0.45,0.95,0.8,1.57,1.06
	c0.62,0.26,1.28,0.38,1.98,0.38c0.86,0,1.62-0.17,2.28-0.51c0.66-0.34,1.2-0.82,1.64-1.44s0.75-1.34,0.94-2.15H17.16z"/>
<path fill="#FFFFFF" d="M37.29,94.75H21.97V70.81h15.32v3.27H25.63v6.98h9.95v3.23h-9.95v7.19h11.66V94.75z"/>
<path fill="#FFFFFF" d="M60.29,94.75h-3.33L45.91,77.91v16.85h-3.66V70.81h3.35l11.07,16.81V70.81h3.63V94.75z"/>
<path fill="#FFFFFF" d="M81.24,74.08h-6.58v20.67h-3.63V74.08h-6.6v-3.27h16.81V74.08z"/>
<path fill="#FFFFFF" d="M100.68,94.75H85.36V70.81h15.32v3.27H89.02v6.98h9.95v3.23h-9.95v7.19h11.66V94.75z"/>
<path fill="#FFFFFF" d="M123.11,94.75h-4.24l-5.04-10.06h-4.53v10.06h-3.66V70.81h9.3c1.47,0,2.77,0.3,3.9,0.89s2.01,1.42,2.61,2.48
	c0.61,1.06,0.91,2.27,0.91,3.62c0,1.64-0.44,3.02-1.32,4.12c-0.88,1.1-2.03,1.85-3.44,2.24L123.11,94.75z M118.74,77.85
	c0-1.17-0.37-2.09-1.11-2.76c-0.74-0.67-1.73-1.01-2.96-1.01h-5.37v7.49h5.37c1.23,0,2.21-0.33,2.96-1
	C118.37,79.9,118.74,79,118.74,77.85z"/>
</svg>
