<?xml version="1.0" encoding="utf-8"?>
<!-- Generator: Adobe Illustrator 15.1.0, SVG Export Plug-In  -->
<!DOCTYPE svg PUBLIC "-//W3C//DTD SVG 1.1//EN" "http://www.w3.org/Graphics/SVG/1.1/DTD/svg11.dtd" [
	<!ENTITY ns_flows "http://ns.adobe.com/Flows/1.0/">
]>
<svg version="1.1"
	 xmlns="http://www.w3.org/2000/svg" xmlns:xlink="http://www.w3.org/1999/xlink" xmlns:a="http://ns.adobe.com/AdobeSVGViewerExtensions/3.0/"
	 x="0px" y="0px" width="360px" height="360px" viewBox="0 -0.24 360 360" enable-background="new 0 -0.24 360 360"
	 xml:space="preserve">
<defs>
</defs>
<path fill="#FFFFFF" d="M78.27,174.91c0,0.13-0.05,0.24-0.13,0.33c-0.09,0.09-0.2,0.13-0.33,0.13h-3.46c-0.13,0-0.24,0.04-0.33,0.12
	c-0.09,0.08-0.13,0.19-0.13,0.32v12.03c0,0.13-0.04,0.24-0.12,0.33c-0.08,0.09-0.19,0.13-0.32,0.13h-3.39
	c-0.13,0-0.24-0.04-0.33-0.13c-0.09-0.09-0.13-0.2-0.13-0.33v-12.03c0-0.13-0.04-0.24-0.12-0.32c-0.08-0.08-0.19-0.12-0.32-0.12
	h-3.47c-0.13,0-0.24-0.04-0.33-0.13c-0.09-0.09-0.13-0.2-0.13-0.33v-3.22c0-0.31,0.15-0.46,0.46-0.46h3.47h0.9h3.39h0.9h3.46
	c0.13,0,0.24,0.04,0.33,0.13c0.09,0.09,0.13,0.2,0.13,0.33V174.91z"/>
<path fill="#FFFFFF" d="M95.08,171.22c0.13,0,0.24,0.04,0.33,0.13c0.09,0.09,0.13,0.2,0.13,0.33v16.15c0,0.13-0.04,0.24-0.13,0.33
	c-0.09,0.09-0.2,0.13-0.33,0.13h-3.39c-0.13,0-0.24-0.04-0.33-0.13c-0.09-0.09-0.13-0.2-0.13-0.33v-5.64c0-0.13-0.04-0.24-0.12-0.32
	c-0.08-0.08-0.19-0.12-0.32-0.12h-4.83c-0.13,0-0.24,0.04-0.33,0.12c-0.09,0.08-0.13,0.19-0.13,0.32v5.64
	c0,0.31-0.15,0.46-0.46,0.46h-3.37c-0.31,0-0.46-0.15-0.46-0.46v-16.15c0-0.31,0.15-0.46,0.46-0.46h3.37c0.31,0,0.46,0.15,0.46,0.46
	v5.46c0,0.31,0.15,0.46,0.46,0.46h4.83c0.13,0,0.24-0.04,0.32-0.13c0.08-0.09,0.12-0.2,0.12-0.33v-5.46c0-0.13,0.04-0.24,0.13-0.33
	c0.09-0.09,0.2-0.13,0.33-0.13H95.08z"/>
<path fill="#FFFFFF" d="M112.34,171.36c0.09,0.09,0.13,0.2,0.13,0.33v1.39v0.73v0.95c0,0.13-0.04,0.24-0.13,0.32
	c-0.09,0.08-0.2,0.12-0.33,0.12h-1.73h-5.08h-1.37c-0.08,0-0.12,0.04-0.12,0.12v2.66c0,0.06,0.04,0.1,0.12,0.1h6.98
	c0.13,0,0.23,0.04,0.32,0.14c0.08,0.09,0.12,0.2,0.12,0.33v2.44c0,0.13-0.04,0.24-0.12,0.33c-0.08,0.09-0.19,0.14-0.32,0.14h-6.98
	c-0.08,0-0.12,0.04-0.12,0.12v1.2v0.02v1.42c0,0.08,0.04,0.12,0.12,0.12h1.02h5.52h1.63c0.13,0,0.24,0.04,0.33,0.13
	c0.09,0.09,0.13,0.2,0.13,0.33v0.98v1.27v0.81c0,0.13-0.04,0.24-0.13,0.33c-0.09,0.09-0.2,0.13-0.33,0.13h-1.39h-9.27h-1.46
	c-0.31,0-0.46-0.15-0.46-0.46v-0.83v-14.15v-1.17c0-0.13,0.04-0.24,0.13-0.33c0.09-0.09,0.2-0.13,0.33-0.13h1.78h9.56h0.78
	C112.14,171.22,112.25,171.27,112.34,171.36z"/>
<path fill="#FFFFFF" d="M137.51,173.66c0.05,0.11,0.09,0.25,0.13,0.41c0.04,0.16,0.06,0.31,0.06,0.44v0.71v4.42v0.44
	c0,0.13-0.02,0.28-0.06,0.45c-0.04,0.17-0.09,0.31-0.13,0.43l-2.24,2.24c-0.11,0.05-0.26,0.1-0.43,0.14
	c-0.17,0.04-0.32,0.06-0.45,0.06h-0.71h-1.78h-2.49c-0.13,0-0.24,0.04-0.33,0.12c-0.09,0.08-0.13,0.19-0.13,0.32v4
	c0,0.31-0.15,0.46-0.46,0.46h-3.37c-0.31,0-0.46-0.15-0.46-0.46v-2.34v-10.1v-3.71c0-0.13,0.04-0.24,0.13-0.33
	c0.09-0.09,0.2-0.13,0.33-0.13h7.44h1.24h0.59c0.13,0,0.28,0.02,0.45,0.06c0.17,0.04,0.31,0.09,0.43,0.13L137.51,173.66z
	 M133.56,179.42v-4.32h-4.78v4.32H133.56z"/>
<path fill="#FFFFFF" d="M153.46,171.36c0.09,0.09,0.13,0.2,0.13,0.33v1.39v0.73v0.95c0,0.13-0.04,0.24-0.13,0.32
	c-0.09,0.08-0.2,0.12-0.33,0.12h-1.73h-5.08h-1.37c-0.08,0-0.12,0.04-0.12,0.12v2.66c0,0.06,0.04,0.1,0.12,0.1h6.98
	c0.13,0,0.23,0.04,0.32,0.14c0.08,0.09,0.12,0.2,0.12,0.33v2.44c0,0.13-0.04,0.24-0.12,0.33c-0.08,0.09-0.19,0.14-0.32,0.14h-6.98
	c-0.08,0-0.12,0.04-0.12,0.12v1.2v0.02v1.42c0,0.08,0.04,0.12,0.12,0.12h1.02h5.51h1.63c0.13,0,0.24,0.04,0.33,0.13
	c0.09,0.09,0.13,0.2,0.13,0.33v0.98v1.27v0.81c0,0.13-0.04,0.24-0.13,0.33c-0.09,0.09-0.2,0.13-0.33,0.13h-1.39h-9.27H141
	c-0.31,0-0.46-0.15-0.46-0.46v-0.83v-14.15v-1.17c0-0.13,0.04-0.24,0.13-0.33c0.09-0.09,0.2-0.13,0.33-0.13h1.78h9.56h0.78
	C153.26,171.22,153.37,171.27,153.46,171.36z"/>
<path fill="#FFFFFF" d="M171.58,173.66c0.05,0.11,0.09,0.25,0.13,0.41c0.04,0.16,0.06,0.31,0.06,0.44v0.46v8.76v1.27
	c0,0.13-0.02,0.28-0.06,0.44c-0.04,0.16-0.09,0.3-0.13,0.42l-2.24,2.24c-0.11,0.07-0.26,0.11-0.43,0.15
	c-0.17,0.03-0.32,0.05-0.45,0.05h-0.51h-5.9h-1.32c-0.13,0-0.28-0.02-0.44-0.05c-0.16-0.03-0.3-0.08-0.41-0.15l-2.25-2.24
	c-0.06-0.11-0.11-0.25-0.15-0.42c-0.03-0.16-0.05-0.31-0.05-0.44v-0.51v-8.71v-1.27c0-0.13,0.02-0.28,0.05-0.44
	c0.03-0.16,0.08-0.3,0.15-0.41l2.25-2.25c0.11-0.05,0.25-0.09,0.41-0.13c0.16-0.04,0.31-0.06,0.44-0.06h1.05h5.12h1.56
	c0.13,0,0.28,0.02,0.45,0.06c0.17,0.04,0.31,0.09,0.43,0.13L171.58,173.66z M167.45,175.37h-5.73v8.81h5.73V175.37z"/>
<path fill="#FFFFFF" d="M188.46,173.66c0.05,0.11,0.09,0.25,0.13,0.41c0.04,0.16,0.06,0.31,0.06,0.44v0.71v4.42v0.44
	c0,0.13-0.02,0.28-0.06,0.45c-0.04,0.17-0.09,0.31-0.13,0.43l-2.24,2.24c-0.11,0.05-0.26,0.1-0.43,0.14
	c-0.17,0.04-0.32,0.06-0.45,0.06h-0.71h-1.78h-2.49c-0.13,0-0.24,0.04-0.33,0.12c-0.09,0.08-0.13,0.19-0.13,0.32v4
	c0,0.31-0.15,0.46-0.46,0.46h-3.37c-0.31,0-0.46-0.15-0.46-0.46v-2.34v-10.1v-3.71c0-0.13,0.04-0.24,0.13-0.33
	c0.09-0.09,0.2-0.13,0.33-0.13h7.44h1.24h0.59c0.13,0,0.28,0.02,0.45,0.06c0.17,0.04,0.31,0.09,0.43,0.13L188.46,173.66z
	 M184.51,179.42v-4.32h-4.78v4.32H184.51z"/>
<path fill="#FFFFFF" d="M202.49,184.16c0.13,0,0.24,0.04,0.32,0.13c0.08,0.09,0.12,0.2,0.12,0.33v3.22c0,0.13-0.04,0.24-0.12,0.33
	c-0.08,0.09-0.19,0.13-0.32,0.13h-10.54c-0.31,0-0.46-0.15-0.46-0.46v-16.15c0-0.31,0.15-0.46,0.46-0.46h3.37
	c0.31,0,0.46,0.15,0.46,0.46v12.03c0,0.13,0.04,0.24,0.13,0.32s0.2,0.12,0.33,0.12H202.49z"/>
<path fill="#FFFFFF" d="M218.24,171.36c0.09,0.09,0.13,0.2,0.13,0.33v1.39v0.73v0.95c0,0.13-0.04,0.24-0.13,0.32
	c-0.09,0.08-0.2,0.12-0.33,0.12h-1.73h-5.07h-1.37c-0.08,0-0.12,0.04-0.12,0.12v2.66c0,0.06,0.04,0.1,0.12,0.1h6.98
	c0.13,0,0.24,0.04,0.32,0.14c0.08,0.09,0.12,0.2,0.12,0.33v2.44c0,0.13-0.04,0.24-0.12,0.33c-0.08,0.09-0.19,0.14-0.32,0.14h-6.98
	c-0.08,0-0.12,0.04-0.12,0.12v1.2v0.02v1.42c0,0.08,0.04,0.12,0.12,0.12h1.03h5.51h1.63c0.13,0,0.24,0.04,0.33,0.13
	s0.13,0.2,0.13,0.33v0.98v1.27v0.81c0,0.13-0.04,0.24-0.13,0.33s-0.2,0.13-0.33,0.13h-1.39h-9.27h-1.46c-0.31,0-0.46-0.15-0.46-0.46
	v-0.83v-14.15v-1.17c0-0.13,0.04-0.24,0.13-0.33c0.09-0.09,0.2-0.13,0.33-0.13h1.78h9.57h0.78
	C218.04,171.22,218.15,171.27,218.24,171.36z"/>
<path fill="#FFFFFF" d="M242.63,174.91c0,0.13-0.04,0.24-0.13,0.33s-0.2,0.13-0.33,0.13h-3.46c-0.13,0-0.24,0.04-0.33,0.12
	c-0.09,0.08-0.13,0.19-0.13,0.32v12.03c0,0.13-0.04,0.24-0.12,0.33c-0.08,0.09-0.19,0.13-0.32,0.13h-3.39
	c-0.13,0-0.24-0.04-0.33-0.13s-0.13-0.2-0.13-0.33v-12.03c0-0.13-0.04-0.24-0.12-0.32c-0.08-0.08-0.19-0.12-0.32-0.12h-3.47
	c-0.13,0-0.24-0.04-0.33-0.13c-0.09-0.09-0.13-0.2-0.13-0.33v-3.22c0-0.31,0.15-0.46,0.46-0.46h3.47h0.9h3.39h0.9h3.46
	c0.13,0,0.24,0.04,0.33,0.13c0.09,0.09,0.13,0.2,0.13,0.33V174.91z"/>
<path fill="#FFFFFF" d="M260.44,187.91c0.06,0.11,0.07,0.21,0.02,0.28c-0.05,0.07-0.14,0.11-0.27,0.11h-3.88
	c-0.13,0-0.26-0.04-0.39-0.11c-0.13-0.07-0.23-0.17-0.29-0.28l-2.73-4.64c-0.03-0.06-0.09-0.1-0.17-0.1h-2.76
	c-0.08,0-0.12,0.04-0.12,0.12v4.54c0,0.31-0.15,0.46-0.46,0.46h-3.37c-0.31,0-0.46-0.15-0.46-0.46v-7.96v-4.17v-4.03
	c0-0.13,0.04-0.24,0.13-0.33c0.09-0.09,0.2-0.13,0.33-0.13h10.57c0.13,0,0.28,0.02,0.45,0.06c0.17,0.04,0.31,0.09,0.43,0.13
	l2.24,2.25c0.05,0.11,0.09,0.25,0.13,0.41c0.04,0.16,0.06,0.31,0.06,0.44v3.29v1.78v0.24c0,0.1-0.02,0.22-0.07,0.35
	c-0.05,0.14-0.11,0.26-0.17,0.38l-2.24,2.29L260.44,187.91z M255.59,175.2h-5.91v4.15h2.81h2.59h0.07h0.44v-0.32v-2.76V175.2z"/>
<path fill="#FFFFFF" d="M277.07,171.36c0.09,0.09,0.13,0.2,0.13,0.33v1.39v0.73v0.95c0,0.13-0.04,0.24-0.13,0.32
	c-0.09,0.08-0.2,0.12-0.33,0.12h-1.73h-5.07h-1.37c-0.08,0-0.12,0.04-0.12,0.12v2.66c0,0.06,0.04,0.1,0.12,0.1h6.98
	c0.13,0,0.24,0.04,0.32,0.14c0.08,0.09,0.12,0.2,0.12,0.33v2.44c0,0.13-0.04,0.24-0.12,0.33c-0.08,0.09-0.19,0.14-0.32,0.14h-6.98
	c-0.08,0-0.12,0.04-0.12,0.12v1.2v0.02v1.42c0,0.08,0.04,0.12,0.12,0.12h1.03h5.51h1.63c0.13,0,0.24,0.04,0.33,0.13
	s0.13,0.2,0.13,0.33v0.98v1.27v0.81c0,0.13-0.04,0.24-0.13,0.33s-0.2,0.13-0.33,0.13h-1.39h-9.27h-1.46c-0.31,0-0.46-0.15-0.46-0.46
	v-0.83v-14.15v-1.17c0-0.13,0.04-0.24,0.13-0.33c0.09-0.09,0.2-0.13,0.33-0.13h1.78h9.56h0.78
	C276.87,171.22,276.98,171.27,277.07,171.36z"/>
<path fill="#FFFFFF" d="M294.01,171.36c0.09,0.09,0.13,0.2,0.13,0.33v1.39v0.73v0.95c0,0.13-0.04,0.24-0.13,0.32
	c-0.09,0.08-0.2,0.12-0.33,0.12h-1.73h-5.08h-1.37c-0.08,0-0.12,0.04-0.12,0.12v2.66c0,0.06,0.04,0.1,0.12,0.1h6.98
	c0.13,0,0.23,0.04,0.32,0.14c0.08,0.09,0.12,0.2,0.12,0.33v2.44c0,0.13-0.04,0.24-0.12,0.33c-0.08,0.09-0.19,0.14-0.32,0.14h-6.98
	c-0.08,0-0.12,0.04-0.12,0.12v1.2v0.02v1.42c0,0.08,0.04,0.12,0.12,0.12h1.02h5.52h1.63c0.13,0,0.24,0.04,0.33,0.13
	c0.09,0.09,0.13,0.2,0.13,0.33v0.98v1.27v0.81c0,0.13-0.04,0.24-0.13,0.33c-0.09,0.09-0.2,0.13-0.33,0.13h-1.39h-9.27h-1.46
	c-0.31,0-0.46-0.15-0.46-0.46v-0.83v-14.15v-1.17c0-0.13,0.04-0.24,0.13-0.33c0.09-0.09,0.2-0.13,0.33-0.13h1.78h9.56h0.78
	C293.81,171.22,293.92,171.27,294.01,171.36z"/>
<g>
	<defs>
		<rect id="SVGID_1_" width="358.76" height="358.76"/>
	</defs>
	<clipPath id="SVGID_15_">
		<use xlink:href="#SVGID_1_"  overflow="visible"/>
	</clipPath>
	<path clip-path="url(#SVGID_15_)" fill="#231F20" d="M164.14,163.85c-0.03,0-0.05,0-0.08,0.02
		C164.1,163.86,164.13,163.85,164.14,163.85L164.14,163.85z"/>
	<path clip-path="url(#SVGID_15_)" fill="#231F20" d="M153.76,207.4L153.76,207.4c-0.18-0.16-0.37-0.29-0.54-0.45
		C153.54,207.23,153.76,207.4,153.76,207.4"/>
</g>
</svg>
